<svg width="167" height="70" viewBox="0 0 167 70" fill="none" xmlns="http://www.w3.org/2000/svg">
<g clip-path="url(#clip0)" filter="url(#filter0_d)">
<path d="M84.9883 17.4062V34.8086C84.9766 37.2227 84.2148 39.1973 82.7031 40.7324C81.2031 42.2676 79.1641 43.1289 76.5859 43.3164L75.6895 43.3516C72.8887 43.3516 70.6562 42.5957 68.9922 41.084C67.3281 39.5723 66.4844 37.4922 66.4609 34.8438V17.4062H69.8008V34.7383C69.8008 36.5898 70.3105 38.0312 71.3301 39.0625C72.3496 40.082 73.8027 40.5918 75.6895 40.5918C77.5996 40.5918 79.0586 40.082 80.0664 39.0625C81.0859 38.043 81.5957 36.6074 81.5957 34.7559V17.4062H84.9883ZM109.984 43H106.592L93.707 23.2773V43H90.3145V17.4062H93.707L106.627 37.2168V17.4062H109.984V43ZM119.6 43H116.225V17.4062H119.6V43ZM142.943 20.1836H134.717V43H131.359V20.1836H123.15V17.4062H142.943V20.1836ZM161.207 31.1699H150.115V40.2402H163V43H146.74V17.4062H162.824V20.1836H150.115V28.4102H161.207V31.1699Z" fill="white"/>
<circle cx="7.43571" cy="20.7429" r="3.43571" fill="#FB7370"/>
<circle cx="43.5107" cy="39.6393" r="3.43571" fill="#FB7370"/>
<circle cx="19.4607" cy="27.6143" r="3.43571" fill="#FB7370"/>
<circle cx="31.4072" cy="34.125" r="3.43571" fill="#FB7370"/>
<circle cx="31.4857" cy="20.7429" r="3.43571" fill="#FB7370"/>
<circle cx="55.5357" cy="46.5107" r="3.43571" fill="#FB7370"/>
<circle cx="55.4072" cy="21.125" r="3.43571" fill="#FB7370"/>
<path d="M31.4857 20.7429C31.4857 9.74857 31.4857 7 31.4857 7" stroke="#FB7370" stroke-width="2" stroke-linecap="round" stroke-linejoin="round"/>
<path d="M7.43571 20.7429C26.6757 9.74857 31.4857 7 31.4857 7" stroke="#FB7370" stroke-width="2" stroke-linecap="round" stroke-linejoin="round"/>
<path d="M19.4607 27.6143C29.0807 22.1171 31.4857 20.7429 31.4857 20.7429" stroke="#FB7370" stroke-width="2" stroke-linecap="round" stroke-linejoin="round"/>
<path d="M19.4607 39.6393C29.0807 45.1365 31.4857 46.5107 31.4857 46.5107" stroke="#FB7370" stroke-width="2" stroke-linecap="round" stroke-linejoin="round"/>
<path d="M31.4857 20.7429C41.1057 26.24 43.5107 27.6143 43.5107 27.6143" stroke="#FB7370" stroke-width="2" stroke-linecap="round" stroke-linejoin="round"/>
<path d="M43.5107 27.6143C43.5107 37.2343 43.5107 39.6393 43.5107 39.6393" stroke="#FB7370" stroke-width="2" stroke-linecap="round" stroke-linejoin="round"/>
<path d="M19.4607 27.6143C19.4607 37.2343 19.4607 39.6393 19.4607 39.6393" stroke="#FB7370" stroke-width="2" stroke-linecap="round" stroke-linejoin="round"/>
<path d="M7.43571 20.7429C26.6757 31.7371 31.4857 34.4857 31.4857 34.4857" stroke="#FB7370" stroke-width="2" stroke-linecap="round" stroke-linejoin="round"/>
<path d="M7.43571 46.5107C26.6757 36.8907 31.4857 34.4857 31.4857 34.4857" stroke="#FB7370" stroke-width="2" stroke-linecap="round" stroke-linejoin="round"/>
<path d="M31.4857 34.4857C50.7257 23.4914 55.5357 20.7429 55.5357 20.7429" stroke="#FB7370" stroke-width="2" stroke-linecap="round" stroke-linejoin="round"/>
<path d="M31.4857 34.4857C50.7257 44.1057 55.5357 46.5107 55.5357 46.5107" stroke="#FB7370" stroke-width="2" stroke-linecap="round" stroke-linejoin="round"/>
<path d="M31.4857 46.5107C41.1057 41.0136 43.5107 39.6393 43.5107 39.6393" stroke="#FB7370" stroke-width="2" stroke-linecap="round" stroke-linejoin="round"/>
<path d="M31.4857 60.2536C50.7257 49.2593 55.5357 46.5107 55.5357 46.5107" stroke="#FB7370" stroke-width="2" stroke-linecap="round" stroke-linejoin="round"/>
<path d="M31.4857 7C50.7257 17.9943 55.5357 20.7429 55.5357 20.7429" stroke="#FB7370" stroke-width="2" stroke-linecap="round" stroke-linejoin="round"/>
<path d="M7.43571 46.5107C26.6757 57.505 31.4857 60.2536 31.4857 60.2536" stroke="#FB7370" stroke-width="2" stroke-linecap="round" stroke-linejoin="round"/>
<path d="M7.43573 46.5107C7.43573 25.8964 7.43573 20.7429 7.43573 20.7429" stroke="#FB7370" stroke-width="2" stroke-linecap="round" stroke-linejoin="round"/>
<path d="M55.5357 46.5107C55.5357 25.8964 55.5357 20.7429 55.5357 20.7429" stroke="#FB7370" stroke-width="2" stroke-linecap="round" stroke-linejoin="round"/>
<path d="M31.4857 60.2536C31.4857 49.2593 31.4857 46.5107 31.4857 46.5107" stroke="#FB7370" stroke-width="2" stroke-linecap="round" stroke-linejoin="round"/>
<path d="M31.4857 46.5107C31.4857 25.8964 31.4857 20.7429 31.4857 20.7429" stroke="#FB7370" stroke-width="2" stroke-linecap="round" stroke-linejoin="round"/>
</g>
<defs>
<filter id="filter0_d" x="0" y="0" width="168" height="76" filterUnits="userSpaceOnUse" color-interpolation-filters="sRGB">
<feFlood flood-opacity="0" result="BackgroundImageFix"/>
<feColorMatrix in="SourceAlpha" type="matrix" values="0 0 0 0 0 0 0 0 0 0 0 0 0 0 0 0 0 0 127 0"/>
<feOffset dy="4"/>
<feGaussianBlur stdDeviation="2"/>
<feColorMatrix type="matrix" values="0 0 0 0 0 0 0 0 0 0 0 0 0 0 0 0 0 0 0.25 0"/>
<feBlend mode="normal" in2="BackgroundImageFix" result="effect1_dropShadow"/>
<feBlend mode="normal" in="SourceGraphic" in2="effect1_dropShadow" result="shape"/>
</filter>
<clipPath id="clip0">
<rect width="160" height="68" fill="white" transform="translate(4)"/>
</clipPath>
</defs>
</svg>
