<svg width="187" height="68" viewBox="0 0 187 68" fill="none" xmlns="http://www.w3.org/2000/svg">
<g filter="url(#filter0_d)">
<path d="M97.9597 21.4062V38.8086C97.948 41.2227 97.1862 43.1973 95.6745 44.7324C94.1745 46.2676 92.1355 47.1289 89.5573 47.3164L88.6609 47.3516C85.8601 47.3516 83.6277 46.5957 81.9636 45.084C80.2995 43.5723 79.4558 41.4922 79.4323 38.8438V21.4062H82.7722V38.7383C82.7722 40.5898 83.282 42.0312 84.3015 43.0625C85.321 44.082 86.7741 44.5918 88.6609 44.5918C90.571 44.5918 92.03 44.082 93.0378 43.0625C94.0573 42.043 94.5671 40.6074 94.5671 38.7559V21.4062H97.9597ZM122.956 47H119.563L106.678 27.2773V47H103.286V21.4062H106.678L119.598 41.2168V21.4062H122.956V47ZM132.571 47H129.196V21.4062H132.571V47ZM155.915 24.1836H147.688V47H144.331V24.1836H136.122V21.4062H155.915V24.1836ZM174.178 35.1699H163.087V44.2402H175.971V47H159.712V21.4062H175.796V24.1836H163.087V32.4102H174.178V35.1699Z" fill="#5F6FFF"/>
</g>
<circle cx="9.43571" cy="20.7429" r="3.43571" fill="#FB7370"/>
<circle cx="45.5107" cy="39.6393" r="3.43571" fill="#FB7370"/>
<circle cx="21.4607" cy="27.6143" r="3.43571" fill="#FB7370"/>
<circle cx="33.4072" cy="34.125" r="3.43571" fill="#FB7370"/>
<circle cx="33.4857" cy="20.7429" r="3.43571" fill="#FB7370"/>
<circle cx="57.5357" cy="46.5107" r="3.43571" fill="#FB7370"/>
<circle cx="57.4072" cy="21.125" r="3.43571" fill="#FB7370"/>
<path d="M33.4857 20.7429C33.4857 9.74857 33.4857 7 33.4857 7" stroke="#FB7370" stroke-width="2" stroke-linecap="round" stroke-linejoin="round"/>
<path d="M9.43571 20.7429C28.6757 9.74857 33.4857 7 33.4857 7" stroke="#FB7370" stroke-width="2" stroke-linecap="round" stroke-linejoin="round"/>
<path d="M21.4607 27.6143C31.0807 22.1171 33.4857 20.7429 33.4857 20.7429" stroke="#FB7370" stroke-width="2" stroke-linecap="round" stroke-linejoin="round"/>
<path d="M21.4607 39.6393C31.0807 45.1365 33.4857 46.5107 33.4857 46.5107" stroke="#FB7370" stroke-width="2" stroke-linecap="round" stroke-linejoin="round"/>
<path d="M33.4857 20.7429C43.1057 26.24 45.5107 27.6143 45.5107 27.6143" stroke="#FB7370" stroke-width="2" stroke-linecap="round" stroke-linejoin="round"/>
<path d="M45.5107 27.6143C45.5107 37.2343 45.5107 39.6393 45.5107 39.6393" stroke="#FB7370" stroke-width="2" stroke-linecap="round" stroke-linejoin="round"/>
<path d="M21.4607 27.6143C21.4607 37.2343 21.4607 39.6393 21.4607 39.6393" stroke="#FB7370" stroke-width="2" stroke-linecap="round" stroke-linejoin="round"/>
<path d="M9.43571 20.7429C28.6757 31.7371 33.4857 34.4857 33.4857 34.4857" stroke="#FB7370" stroke-width="2" stroke-linecap="round" stroke-linejoin="round"/>
<path d="M9.43571 46.5107C28.6757 36.8907 33.4857 34.4857 33.4857 34.4857" stroke="#FB7370" stroke-width="2" stroke-linecap="round" stroke-linejoin="round"/>
<path d="M33.4857 34.4857C52.7257 23.4914 57.5357 20.7429 57.5357 20.7429" stroke="#FB7370" stroke-width="2" stroke-linecap="round" stroke-linejoin="round"/>
<path d="M33.4857 34.4857C52.7257 44.1057 57.5357 46.5107 57.5357 46.5107" stroke="#FB7370" stroke-width="2" stroke-linecap="round" stroke-linejoin="round"/>
<path d="M33.4857 46.5107C43.1057 41.0136 45.5107 39.6393 45.5107 39.6393" stroke="#FB7370" stroke-width="2" stroke-linecap="round" stroke-linejoin="round"/>
<path d="M33.4857 60.2536C52.7257 49.2593 57.5357 46.5107 57.5357 46.5107" stroke="#FB7370" stroke-width="2" stroke-linecap="round" stroke-linejoin="round"/>
<path d="M33.4857 7C52.7257 17.9943 57.5357 20.7429 57.5357 20.7429" stroke="#FB7370" stroke-width="2" stroke-linecap="round" stroke-linejoin="round"/>
<path d="M9.43571 46.5107C28.6757 57.505 33.4857 60.2536 33.4857 60.2536" stroke="#FB7370" stroke-width="2" stroke-linecap="round" stroke-linejoin="round"/>
<path d="M9.43573 46.5107C9.43573 25.8964 9.43573 20.7429 9.43573 20.7429" stroke="#FB7370" stroke-width="2" stroke-linecap="round" stroke-linejoin="round"/>
<path d="M57.5357 46.5107C57.5357 25.8964 57.5357 20.7429 57.5357 20.7429" stroke="#FB7370" stroke-width="2" stroke-linecap="round" stroke-linejoin="round"/>
<path d="M33.4857 60.2536C33.4857 49.2593 33.4857 46.5107 33.4857 46.5107" stroke="#FB7370" stroke-width="2" stroke-linecap="round" stroke-linejoin="round"/>
<path d="M33.4857 46.5107C33.4857 25.8964 33.4857 20.7429 33.4857 20.7429" stroke="#FB7370" stroke-width="2" stroke-linecap="round" stroke-linejoin="round"/>
<defs>
<filter id="filter0_d" x="75.4323" y="21.4062" width="104.539" height="33.9453" filterUnits="userSpaceOnUse" color-interpolation-filters="sRGB">
<feFlood flood-opacity="0" result="BackgroundImageFix"/>
<feColorMatrix in="SourceAlpha" type="matrix" values="0 0 0 0 0 0 0 0 0 0 0 0 0 0 0 0 0 0 127 0"/>
<feOffset dy="4"/>
<feGaussianBlur stdDeviation="2"/>
<feColorMatrix type="matrix" values="0 0 0 0 0 0 0 0 0 0 0 0 0 0 0 0 0 0 0.25 0"/>
<feBlend mode="normal" in2="BackgroundImageFix" result="effect1_dropShadow"/>
<feBlend mode="normal" in="SourceGraphic" in2="effect1_dropShadow" result="shape"/>
</filter>
</defs>
</svg>
