<svg fill="none" height="542" viewBox="0 0 370 542" width="370" xmlns="http://www.w3.org/2000/svg" xmlns:xlink="http://www.w3.org/1999/xlink"><mask id="a" height="542" maskUnits="userSpaceOnUse" width="370" x="0" y="0"><rect fill="#5f6fff" height="541" rx="5" width="370" y=".388672"/></mask><rect fill="#5f6fff" height="541" rx="5" width="370" y=".388672"/><g mask="url(#a)" opacity=".6"><g fill="#fff" opacity=".4"><path d="m-90 266.889c0 151.602 122.8978 274.5 274.5 274.5 151.602 0 274.5-122.898 274.5-274.5s-122.898-274.50033-274.5-274.50033c-151.6022 0-274.5 122.89833-274.5 274.50033zm458.318 0c0 101.52-82.298 183.818-183.818 183.818-101.5201 0-183.818359-82.298-183.818359-183.818s82.298259-183.8187 183.818359-183.8187c101.52 0 183.818 82.2987 183.818 183.8187z" opacity=".1"/><path d="m41.4272 267.223c0 78.832 63.9058 142.738 142.7378 142.738 78.833 0 142.739-63.906 142.739-142.738s-63.906-142.738-142.739-142.738c-78.832 0-142.7378 63.906-142.7378 142.738zm213.5468 0c0 39.106-31.702 70.809-70.809 70.809-39.106 0-70.808-31.703-70.808-70.809 0-39.107 31.702-70.809 70.808-70.809 39.107 0 70.809 31.702 70.809 70.809z" opacity=".1"/></g></g></svg>