<svg fill="none" height="771" viewBox="0 0 1440 771" width="1440" xmlns="http://www.w3.org/2000/svg" xmlns:xlink="http://www.w3.org/1999/xlink"><linearGradient id="a" gradientUnits="userSpaceOnUse" x1="-106.559" x2="466.966" y1="774.178" y2="326.065"><stop offset="0" stop-color="#969fff"/><stop offset="1" stop-color="#8593ff"/></linearGradient><mask id="b" height="771" maskUnits="userSpaceOnUse" width="1440" x="0" y="0"><path d="m0 0h1440v662.201l-1440 107.861z" fill="#5f6fff"/></mask><path d="m0 0h1440v662.201l-1440 107.861z" fill="#5f6fff"/><g mask="url(#b)"><path d="m188.615 367.359c-155.5931 62.719-164.3169-187.013-197.29212-136.117l-294.49888 642.524 372.0462 12.903c231.5438-2.151 684.3078-31.398 643.0168-131.184-51.613-124.732-42.662-115.662-267.862-186.246-128.516-40.28-58.117-281.409-255.41-201.88z" fill="url(#a)" opacity=".13"/><g fill="#fff" opacity=".4"><path d="m1055.81 323.129c0 198.547 160.96 359.5 359.5 359.5 198.55 0 359.5-160.953 359.5-359.5 0-198.546-160.95-359.4996-359.5-359.4996-198.54 0-359.5 160.9536-359.5 359.4996zm600.24 0c0 132.957-107.78 240.739-240.74 240.739-132.95 0-240.73-107.782-240.73-240.739 0-132.956 107.78-240.7381 240.73-240.7381 132.96 0 240.74 107.7821 240.74 240.7381z" opacity=".1"/><path d="m1227.94 323.567c0 103.243 83.69 186.938 186.94 186.938 103.24 0 186.93-83.695 186.93-186.938s-83.69-186.938-186.93-186.938c-103.25 0-186.94 83.695-186.94 186.938zm279.67 0c0 51.216-41.52 92.735-92.73 92.735-51.22 0-92.74-41.519-92.74-92.735s41.52-92.735 92.74-92.735c51.21 0 92.73 41.519 92.73 92.735z" opacity=".1"/></g></g></svg>