<?xml version="1.0" encoding="utf-8"?>
<!-- Generator: Adobe Illustrator 21.0.0, SVG Export Plug-In . SVG Version: 6.00 Build 0)  -->
<svg version="1.1" id="Layer_1" xmlns="http://www.w3.org/2000/svg" xmlns:xlink="http://www.w3.org/1999/xlink" x="0px" y="0px"
	 viewBox="0 0 377.7 418.9" style="enable-background:new 0 0 377.7 418.9;" xml:space="preserve">
<style type="text/css">
	.st0{fill:#B1B4C4;}
	.st1{fill:#E4E7F2;}
	.st2{fill:#D6D8E5;}
	.st3{fill:#FFFFFF;}
	.st4{opacity:0.5;fill:url(#SVGID_1_);enable-background:new    ;}
	.st5{opacity:0.4;fill:#D6D8E5;enable-background:new    ;}
	.st6{fill:#2B303F;}
	.st7{fill:#C3C6D1;}
	.st8{fill:#E9EAF2;}
	.st9{fill:#8C50FF;}
	.st10{fill:#F5F6FF;}
	.st11{fill:none;stroke:#E9EAF2;stroke-width:0.22;stroke-miterlimit:10;}
	.st12{fill:none;stroke:#E9EAF2;stroke-width:1.09;stroke-miterlimit:10;}
	.st13{fill:#2B2A30;}
	.st14{fill:#FFCEA9;}
	.st15{fill:#F4F4F4;}
	.st16{fill:#BF4B4B;}
	.st17{fill:#E26161;}
	.st18{fill:#EDEDED;}
	.st19{fill:#3A2C6D;}
	.st20{fill:#BFBFBF;}
	.st21{fill:#E5E5E5;}
	.st22{fill:#38226D;}
	.st23{fill:#9C73FF;}
</style>
<title>Business_SVG</title>
<g id="Слой_2">
	<g id="Слой_1-2">
		<g id="Laptop">
			<path class="st0" d="M366.9,323.5L160.1,204.2c-2.9-1.7-5.3-6.2-5.3-10V34.3c0-3.9,2.4-5.6,5.3-4l206.7,119.4
				c2.9,1.7,5.3,6.2,5.3,10v159.9C372.1,323.4,369.8,325.2,366.9,323.5z"/>
			<polygon class="st0" points="367.9,325.2 370.2,323.9 369.2,317.1 			"/>
			<path class="st0" d="M154.5,31.3l2.3-1.3l3.2,1.9c0,0-3.4,0.5-3.5,0.5S154.5,31.3,154.5,31.3z"/>
			<path class="st1" d="M365,324.6L158.2,205.3c-2.9-1.7-5.3-6.2-5.3-10V35.3c0-3.9,2.4-5.6,5.3-4L365,150.7c2.9,1.7,5.3,6.2,5.3,10
				v159.9C370.2,324.5,367.9,326.3,365,324.6z"/>
			<path class="st2" d="M364.6,324.9L157.9,205.5c-2.9-1.7-5.3-6.2-5.3-10V35.6c0-3.9,2.4-5.6,5.3-4l206.7,119.4
				c2.9,1.7,5.3,6.2,5.3,10v159.9C369.8,324.7,367.5,326.5,364.6,324.9z"/>
			<path class="st3" d="M367,315.1L155.2,192.9l0.1-156.7c0-1.6,1.1-2.3,2.5-1.5l206.7,119.4c1.5,1,2.4,2.6,2.5,4.4L367,315.1z"/>
			
				<linearGradient id="SVGID_1_" gradientUnits="userSpaceOnUse" x1="-266.917" y1="-1711.5511" x2="-266.917" y2="-1573.3011" gradientTransform="matrix(0.87 0.5 0 -1.15 493.3777 -1591.2476)">
				<stop  offset="0.21" style="stop-color:#FFFFFF;stop-opacity:0"/>
				<stop  offset="1" style="stop-color:#FFFFFF;stop-opacity:0.2"/>
			</linearGradient>
			<path class="st4" d="M367,315L155.2,192.8l0.1-156.7c0-1.6,1.1-2.3,2.5-1.5L364.6,154c1.5,1,2.4,2.6,2.5,4.4L367,315z"/>
			<path class="st5" d="M208.7,417.8L2,298.4c-2.9-1.7-2.5-4.6,0.8-6.5l138.5-79.9c3.4-1.9,8.4-2.1,11.3-0.5l206.7,119.3
				c2.9,1.7,2.5,4.6-0.8,6.5l-138.5,80C216.7,419.2,211.6,419.4,208.7,417.8z"/>
			<path class="st0" d="M213.2,415.1L6.5,295.7c-2.9-1.7-2.5-4.6,0.8-6.5l138.5-80c3.3-1.9,8.4-2.1,11.3-0.5l206.7,119.4
				c2.9,1.7,2.5,4.6-0.8,6.5l-138.5,80C221.2,416.5,216.1,416.7,213.2,415.1z"/>
			<polygon class="st0" points="4.5,293 4.5,289.1 8.9,290.9 			"/>
			<polygon class="st0" points="365.8,331 365.8,327.2 362.5,328.3 364.7,331.5 			"/>
			<path class="st1" d="M213.2,411.8L6.5,292.4c-2.9-1.7-2.5-4.6,0.8-6.5l138.5-80c3.3-1.9,8.4-2.1,11.3-0.5l206.7,119.4
				c2.9,1.7,2.5,4.6-0.8,6.5l-138.5,79.9C221.2,413.2,216.1,413.5,213.2,411.8z"/>
			<path class="st2" d="M213.2,411.3L6.5,291.9c-2.9-1.7-2.5-4.6,0.8-6.5l138.5-80c3.3-1.9,8.4-2.1,11.3-0.5l206.7,119.4
				c2.9,1.7,2.5,4.6-0.8,6.5l-138.5,80C221.2,412.7,216.1,412.9,213.2,411.3z"/>
			<path class="st6" d="M141.9,232.4l-9.6-5.6c-0.8-0.4-0.7-1.2,0.2-1.8l9.2-5.3c0.9-0.5,2.1-0.6,3.1-0.1l9.6,5.6
				c0.8,0.4,0.7,1.3-0.2,1.8l-9.2,5.3C144.1,232.8,142.9,232.8,141.9,232.4z"/>
			<path class="st6" d="M155.6,240.3l-9.6-5.6c-0.8-0.4-0.7-1.3,0.2-1.8l9.2-5.3c0.9-0.5,2.1-0.6,3.1-0.1l9.6,5.6
				c0.8,0.4,0.7,1.2-0.2,1.8l-9.2,5.3C157.7,240.7,156.5,240.7,155.6,240.3z"/>
			<path class="st6" d="M169.3,248.2l-9.7-5.6c-0.8-0.5-0.7-1.3,0.2-1.8l9.2-5.3c0.9-0.5,2.1-0.6,3.1-0.1l9.6,5.6
				c0.8,0.5,0.7,1.3-0.2,1.8l-9.2,5.3C171.4,248.6,170.3,248.7,169.3,248.2z"/>
			<path class="st6" d="M182.8,256l-9.6-5.6c-0.8-0.4-0.7-1.2,0.2-1.8l9.2-5.3c0.9-0.5,2.1-0.6,3.1-0.1l9.6,5.6
				c0.8,0.4,0.7,1.3-0.2,1.8l-9.2,5.3C184.9,256.4,183.8,256.4,182.8,256z"/>
			<path class="st6" d="M196.4,263.9l-9.6-5.6c-0.8-0.5-0.7-1.3,0.2-1.8l9.2-5.3c0.9-0.5,2.1-0.6,3.1-0.1l9.6,5.6
				c0.8,0.5,0.7,1.2-0.2,1.8l-9.2,5.3C198.6,264.3,197.4,264.3,196.4,263.9z"/>
			<path class="st6" d="M210.1,271.7l-9.6-5.5c-0.8-0.5-0.7-1.3,0.2-1.8l9.2-5.3c0.9-0.5,2.1-0.6,3.1-0.1l9.6,5.5
				c0.8,0.5,0.7,1.3-0.2,1.8l-9.2,5.3C212.2,272.1,211,272.2,210.1,271.7z"/>
			<path class="st6" d="M223.7,279.6l-9.6-5.6c-0.8-0.5-0.7-1.2,0.2-1.8l9.2-5.3c0.9-0.5,2.1-0.6,3.1-0.1l9.6,5.6
				c0.8,0.5,0.7,1.3-0.2,1.8l-9.2,5.3C225.8,280,224.7,280,223.7,279.6z"/>
			<path class="st6" d="M237.3,287.5l-9.6-5.6c-0.8-0.5-0.7-1.3,0.2-1.8l9.2-5.3c0.9-0.5,2.1-0.6,3.1-0.1l9.6,5.6
				c0.8,0.5,0.7,1.2-0.2,1.8l-9.2,5.3C239.4,287.9,238.3,287.9,237.3,287.5z"/>
			<path class="st6" d="M250.9,295.3l-9.6-5.5c-0.8-0.5-0.7-1.3,0.2-1.8l9.2-5.3c0.9-0.5,2.1-0.6,3.1-0.1l9.6,5.6
				c0.8,0.5,0.7,1.2-0.2,1.8l-9.2,5.3C253.1,295.7,251.9,295.8,250.9,295.3z"/>
			<path class="st6" d="M264.6,303.2l-9.6-5.6c-0.8-0.5-0.7-1.2,0.2-1.8l9.2-5.3c0.9-0.5,2.1-0.6,3.1-0.1l9.6,5.5
				c0.8,0.5,0.7,1.3-0.2,1.8l-9.2,5.3C266.7,303.6,265.6,303.6,264.6,303.2z"/>
			<path class="st6" d="M278.2,311.1l-9.6-5.6c-0.8-0.5-0.7-1.2,0.2-1.8l9.2-5.3c0.9-0.5,2.1-0.6,3.1-0.1l9.6,5.6
				c0.8,0.5,0.7,1.2-0.2,1.8l-9.2,5.3C280.3,311.5,279.2,311.5,278.2,311.1z"/>
			<path class="st6" d="M291.8,318.9l-9.6-5.5c-0.8-0.5-0.7-1.3,0.2-1.8l9.2-5.3c0.9-0.5,2.1-0.6,3.1-0.1l9.6,5.6
				c0.8,0.5,0.7,1.2-0.2,1.8l-9.2,5.3C293.9,319.3,292.8,319.4,291.8,318.9z"/>
			<path class="st6" d="M305.4,326.8l-9.6-5.6c-0.8-0.5-0.7-1.2,0.2-1.8l9.2-5.3c0.9-0.5,2.1-0.6,3.1-0.1l9.6,5.5
				c0.8,0.5,0.7,1.3-0.2,1.8l-9.2,5.3C307.6,327.2,306.4,327.3,305.4,326.8z"/>
			<path class="st6" d="M325.7,338.5l-16.2-9.4c-0.8-0.5-0.7-1.2,0.2-1.8l9.2-5.3c0.9-0.5,2.1-0.6,3.1-0.1l16.2,9.4
				c0.8,0.5,0.7,1.2-0.2,1.8l-9.2,5.3C327.8,338.9,326.7,338.9,325.7,338.5z"/>
			<path class="st6" d="M148.9,251.7l-9.6-5.6c-0.8-0.5-0.7-1.3,0.2-1.8l9.2-5.3c0.9-0.5,2.1-0.6,3.1-0.1l9.6,5.6
				c0.8,0.5,0.7,1.3-0.2,1.8l-9.2,5.3C151.1,252.1,149.9,252.1,148.9,251.7z"/>
			<path class="st6" d="M162.6,259.6L153,254c-0.8-0.5-0.7-1.3,0.2-1.8l9.2-5.3c0.9-0.5,2.1-0.6,3.1-0.1l9.6,5.6
				c0.8,0.5,0.7,1.3-0.2,1.8l-9.2,5.3C164.7,260,163.6,260,162.6,259.6z"/>
			<path class="st6" d="M176.2,267.5l-9.6-5.5c-0.8-0.5-0.7-1.3,0.2-1.8l9.2-5.3c0.9-0.5,2.1-0.6,3.1-0.1l9.6,5.6
				c0.8,0.5,0.7,1.2-0.2,1.8l-9.2,5.3C178.4,267.9,177.2,267.9,176.2,267.5z"/>
			<path class="st6" d="M189.9,275.3l-9.6-5.5c-0.8-0.5-0.7-1.3,0.2-1.8l9.2-5.3c0.9-0.5,2.1-0.6,3.1-0.1l9.6,5.6
				c0.8,0.5,0.7,1.2-0.2,1.8l-9.2,5.3C192,275.7,190.9,275.8,189.9,275.3z"/>
			<path class="st6" d="M203.4,283.1l-9.6-5.6c-0.8-0.5-0.7-1.2,0.2-1.8l9.2-5.3c0.9-0.5,2.1-0.6,3.1-0.1l9.6,5.5
				c0.8,0.5,0.7,1.3-0.2,1.8l-9.2,5.3C205.6,283.6,204.4,283.6,203.4,283.1z"/>
			<path class="st6" d="M217.1,291l-9.6-5.5c-0.8-0.5-0.7-1.3,0.2-1.8l9.2-5.3c0.9-0.5,2.1-0.6,3.1-0.1l9.6,5.5
				c0.8,0.5,0.7,1.3-0.2,1.8l-9.2,5.3C219.2,291.4,218.1,291.4,217.1,291z"/>
			<path class="st6" d="M230.7,298.9l-9.6-5.5c-0.8-0.5-0.7-1.3,0.2-1.8l9.2-5.3c0.9-0.5,2.1-0.6,3.1-0.1l9.6,5.5
				c0.8,0.5,0.7,1.3-0.2,1.8l-9.2,5.3C232.8,299.3,231.7,299.4,230.7,298.9z"/>
			<path class="st6" d="M244.4,306.8l-9.6-5.5c-0.8-0.5-0.7-1.3,0.2-1.8l9.2-5.3c0.9-0.5,2.1-0.6,3.1-0.1l9.6,5.5
				c0.8,0.5,0.7,1.3-0.2,1.8l-9.2,5.3C246.5,307.2,245.4,307.2,244.4,306.8z"/>
			<path class="st6" d="M258,314.7l-9.6-5.5c-0.8-0.5-0.7-1.3,0.2-1.8l9.2-5.3c0.9-0.5,2.1-0.6,3.1-0.1l9.6,5.6
				c0.8,0.5,0.7,1.2-0.2,1.8l-9.2,5.3C260.1,315.1,259,315.1,258,314.7z"/>
			<path class="st6" d="M271.7,322.5L262,317c-0.8-0.5-0.7-1.3,0.2-1.8l9.2-5.3c0.9-0.5,2.1-0.6,3.1-0.1l9.6,5.6
				c0.8,0.5,0.7,1.2-0.2,1.8l-9.2,5.3C273.8,323,272.7,323,271.7,322.5z"/>
			<path class="st6" d="M285.3,330.4l-9.6-5.5c-0.8-0.5-0.7-1.3,0.2-1.8l9.2-5.3c0.9-0.5,2.1-0.6,3.1-0.1l9.6,5.6
				c0.8,0.5,0.7,1.2-0.2,1.8l-9.2,5.3C287.4,330.8,286.3,330.9,285.3,330.4z"/>
			<path class="st6" d="M299,338.3l-9.6-5.6c-0.8-0.5-0.7-1.3,0.2-1.8l9.2-5.3c0.9-0.5,2.1-0.6,3.1-0.1l9.6,5.6
				c0.8,0.5,0.7,1.2-0.2,1.8l-9.2,5.3C301.1,338.7,300,338.8,299,338.3z"/>
			<path class="st6" d="M135.3,243.8l-16.2-9.3c-0.8-0.5-0.7-1.3,0.2-1.8l9.2-5.3c0.9-0.5,2.1-0.6,3.1-0.1l16.2,9.3
				c0.8,0.5,0.7,1.3-0.2,1.8l-9.2,5.3C137.4,244.2,136.3,244.3,135.3,243.8z"/>
			<path class="st6" d="M325,339l-9.6-5.5c-0.9-0.5-2-0.5-2.9,0l-9.7,5.5c-0.5,0.2-0.7,0.6-0.5,1.1c0.1,0.3,0.3,0.5,0.5,0.5l0.8,0.4
				c0.4,0.1,0.6,0.6,0.5,1c-0.1,0.2-0.3,0.4-0.5,0.5l-10.3,5.9c-0.8,0.5-0.8,1.2,0,1.6l6.1,3.5c0.9,0.5,2,0.5,2.9,0l9.6-5.5l2-1.1
				l1.4-0.8l1.4-0.8l8.3-4.8C325.8,340.1,325.8,339.4,325,339z"/>
			<path class="st6" d="M89.2,262.9l-9.6-5.6c-0.8-0.5-0.7-1.2,0.2-1.8l9.2-5.3c0.9-0.5,2.1-0.6,3.1-0.1l9.6,5.6
				c0.8,0.5,0.7,1.3-0.2,1.8l-9.2,5.3C91.3,263.3,90.1,263.4,89.2,262.9z"/>
			<path class="st6" d="M102.7,270.8l-9.6-5.6c-0.8-0.5-0.7-1.3,0.2-1.8l9.2-5.3c0.9-0.5,2.1-0.6,3.1-0.1l9.6,5.6
				c0.8,0.5,0.7,1.2-0.2,1.8l-9.2,5.3C104.9,271.2,103.7,271.2,102.7,270.8z"/>
			<path class="st6" d="M116.3,278.6l-9.7-5.6c-0.8-0.5-0.7-1.2,0.2-1.8l9.2-5.3c0.9-0.5,2.1-0.6,3.1-0.1l9.6,5.6
				c0.8,0.5,0.7,1.3-0.2,1.8l-9.2,5.3C118.4,279,117.3,279.1,116.3,278.6z"/>
			<path class="st6" d="M232,345.4l-9.6-5.5c-0.8-0.5-0.7-1.3,0.2-1.8l9.2-5.3c0.9-0.5,2.1-0.6,3.1-0.1l9.6,5.6
				c0.8,0.5,0.7,1.2-0.2,1.8l-9.2,5.3C234.2,345.8,233,345.9,232,345.4z"/>
			<path class="st6" d="M245.7,353.3l-9.6-5.6c-0.8-0.5-0.7-1.2,0.2-1.8l9.2-5.3c0.9-0.5,2.1-0.6,3.1-0.1l9.6,5.6
				c0.8,0.5,0.7,1.3-0.2,1.8l-9.2,5.3C247.8,353.7,246.7,353.7,245.7,353.3z"/>
			<path class="st6" d="M259.2,361.1l-9.6-5.5c-0.8-0.5-0.7-1.3,0.2-1.8l9.2-5.3c0.9-0.5,2.1-0.6,3.1-0.1l9.6,5.5
				c0.8,0.5,0.7,1.3-0.2,1.8l-9.2,5.3C261.3,361.5,260.2,361.6,259.2,361.1z"/>
			<path class="st6" d="M272.8,369l-9.6-5.6c-0.8-0.5-0.7-1.2,0.2-1.8l9.2-5.3c0.9-0.5,2.1-0.6,3.1-0.1l9.6,5.6
				c0.8,0.5,0.7,1.2-0.2,1.8l-9.2,5.3C274.9,369.4,273.8,369.4,272.8,369z"/>
			<path class="st6" d="M133.4,288.5l-13.1-7.6c-0.8-0.5-0.7-1.3,0.2-1.8l9.2-5.3c0.9-0.5,2.1-0.6,3.1-0.1l13.1,7.6
				c0.8,0.5,0.7,1.2-0.2,1.8l-9.2,5.3C135.5,288.9,134.4,288.9,133.4,288.5z"/>
			<path class="st6" d="M218.5,337.6l-13.1-7.6c-0.8-0.5-0.7-1.2,0.2-1.8l9.2-5.3c0.9-0.5,2.1-0.6,3.1-0.1l13.1,7.6
				c0.8,0.5,0.7,1.3-0.2,1.8l-9.2,5.3C220.6,338,219.4,338,218.5,337.6z"/>
			<path class="st6" d="M201.4,327.7l-64-36.9c-0.8-0.5-0.7-1.2,0.2-1.8l9.2-5.3c0.9-0.5,2.1-0.6,3.1-0.1l64,37
				c0.8,0.5,0.7,1.2-0.2,1.8l-9.2,5.3C203.5,328.1,202.4,328.2,201.4,327.7z"/>
			<path class="st6" d="M139.4,261.5l-9.6-5.6c-0.8-0.4-0.7-1.2,0.2-1.8l9.2-5.3c0.9-0.5,2.1-0.6,3.1-0.1l9.6,5.6
				c0.8,0.4,0.7,1.3-0.2,1.8l-9.2,5.3C141.6,261.9,140.4,261.9,139.4,261.5z"/>
			<path class="st6" d="M153.1,269.3l-9.6-5.6c-0.8-0.5-0.7-1.3,0.2-1.8l9.2-5.3c0.9-0.5,2.1-0.6,3.1-0.1l9.6,5.6
				c0.8,0.5,0.7,1.2-0.2,1.8l-9.2,5.3C155.2,269.7,154,269.8,153.1,269.3z"/>
			<path class="st6" d="M166.7,277.2l-9.6-5.5c-0.8-0.5-0.7-1.3,0.2-1.8l9.2-5.3c0.9-0.5,2.1-0.6,3.1-0.1l9.6,5.6
				c0.8,0.5,0.7,1.2-0.2,1.8l-9.2,5.3C168.8,277.6,167.7,277.6,166.7,277.2z"/>
			<path class="st6" d="M180.3,285l-9.6-5.5c-0.8-0.5-0.7-1.3,0.2-1.8l9.2-5.3c0.9-0.5,2.1-0.6,3.1-0.1l9.6,5.5
				c0.8,0.5,0.7,1.3-0.2,1.8l-9.2,5.3C182.4,285.4,181.3,285.5,180.3,285z"/>
			<path class="st6" d="M193.9,292.9l-9.6-5.6c-0.8-0.5-0.7-1.2,0.2-1.8l9.2-5.3c0.9-0.5,2.1-0.6,3.1-0.1l9.6,5.5
				c0.8,0.5,0.7,1.3-0.2,1.8l-9.2,5.3C196,293.3,194.9,293.3,193.9,292.9z"/>
			<path class="st6" d="M207.5,300.8l-9.6-5.6c-0.8-0.5-0.7-1.2,0.2-1.8l9.2-5.3c0.9-0.5,2.1-0.6,3.1-0.1l9.6,5.6
				c0.8,0.5,0.7,1.3-0.2,1.8l-9.2,5.3C209.6,301.1,208.5,301.2,207.5,300.8z"/>
			<path class="st6" d="M221.1,308.6l-9.6-5.6c-0.8-0.5-0.7-1.3,0.2-1.8l9.2-5.3c0.9-0.5,2.1-0.6,3.1-0.1l9.6,5.6
				c0.8,0.5,0.7,1.2-0.2,1.8l-9.2,5.3C223.2,309,222.1,309.1,221.1,308.6z"/>
			<path class="st6" d="M234.7,316.5l-9.6-5.6c-0.8-0.5-0.7-1.3,0.2-1.8l9.2-5.3c0.9-0.5,2.1-0.6,3.1-0.1l9.6,5.6
				c0.8,0.5,0.7,1.2-0.2,1.8l-9.2,5.3C236.8,316.9,235.7,316.9,234.7,316.5z"/>
			<path class="st6" d="M248.3,324.3l-9.6-5.6c-0.8-0.5-0.7-1.3,0.2-1.8l9.2-5.3c0.9-0.5,2.1-0.6,3.1-0.1l9.6,5.5
				c0.8,0.5,0.7,1.3-0.2,1.8l-9.2,5.3C250.4,324.7,249.3,324.8,248.3,324.3z"/>
			<path class="st6" d="M261.9,332.2l-9.6-5.6c-0.8-0.5-0.7-1.2,0.2-1.8l9.2-5.3c0.9-0.5,2.1-0.6,3.1-0.1l9.6,5.5
				c0.8,0.5,0.7,1.3-0.2,1.8L265,332C264.1,332.6,262.9,332.6,261.9,332.2z"/>
			<path class="st6" d="M275.5,340l-9.6-5.6c-0.8-0.5-0.7-1.2,0.2-1.8l9.2-5.3c0.9-0.5,2.1-0.6,3.1-0.1l9.6,5.6
				c0.8,0.5,0.7,1.3-0.2,1.8l-9.2,5.3C277.7,340.4,276.5,340.4,275.5,340z"/>
			<path class="st6" d="M289.2,347.9l-9.6-5.6c-0.8-0.5-0.7-1.2,0.2-1.8l9.2-5.3c0.9-0.5,2.1-0.6,3.1-0.1l9.7,5.6
				c0.8,0.5,0.7,1.2-0.2,1.8l-9.2,5.3C291.3,348.3,290.2,348.4,289.2,347.9z"/>
			<path class="st6" d="M125.8,253.6l-19.9-11.5c-0.8-0.5-0.7-1.3,0.2-1.8l9.2-5.3c0.9-0.5,2.1-0.6,3.1-0.1l19.9,11.5
				c0.8,0.5,0.7,1.3-0.2,1.8l-9.2,5.3C128,254,126.8,254,125.8,253.6z"/>
			<path class="st6" d="M119.5,265.2l-9.6-5.5c-0.8-0.5-0.7-1.3,0.2-1.8l9.2-5.3c0.9-0.5,2.1-0.6,3.1-0.1l9.6,5.5
				c0.8,0.5,0.7,1.3-0.2,1.8l-9.2,5.3C121.6,265.6,120.5,265.6,119.5,265.2z"/>
			<path class="st6" d="M133.1,273l-9.6-5.6c-0.8-0.5-0.7-1.2,0.2-1.8l9.2-5.3c0.9-0.5,2.1-0.6,3.1-0.1l9.6,5.6
				c0.8,0.5,0.7,1.3-0.2,1.8l-9.2,5.3C135.2,273.4,134.1,273.4,133.1,273z"/>
			<path class="st6" d="M146.7,280.9l-9.6-5.6c-0.8-0.5-0.7-1.3,0.2-1.8l9.2-5.3c0.9-0.5,2.1-0.6,3.1-0.1l9.6,5.6
				c0.8,0.5,0.7,1.2-0.2,1.8l-9.2,5.3C148.8,281.3,147.7,281.3,146.7,280.9z"/>
			<path class="st6" d="M160.3,288.8l-9.6-5.5c-0.8-0.5-0.7-1.3,0.2-1.8l9.2-5.3c0.9-0.5,2.1-0.6,3.1-0.1l9.6,5.5
				c0.8,0.5,0.7,1.3-0.2,1.8l-9.2,5.3C162.4,289.2,161.3,289.2,160.3,288.8z"/>
			<path class="st6" d="M173.9,296.6l-9.6-5.6c-0.8-0.5-0.7-1.2,0.2-1.8l9.2-5.3c0.9-0.5,2.1-0.6,3.1-0.1l9.6,5.6
				c0.8,0.5,0.7,1.3-0.2,1.8l-9.2,5.3C176,297,174.9,297.1,173.9,296.6z"/>
			<path class="st6" d="M187.5,304.5l-9.6-5.6c-0.8-0.5-0.7-1.3,0.2-1.8l9.2-5.3c0.9-0.5,2.1-0.6,3.1-0.1l9.6,5.6
				c0.8,0.5,0.7,1.2-0.2,1.8l-9.2,5.3C189.6,304.9,188.5,304.9,187.5,304.5z"/>
			<path class="st6" d="M201.1,312.3l-9.6-5.5c-0.8-0.5-0.7-1.3,0.2-1.8l9.2-5.3c0.9-0.5,2.1-0.6,3.1-0.1l9.6,5.5
				c0.8,0.5,0.7,1.3-0.2,1.8l-9.2,5.3C203.2,312.7,202.1,312.8,201.1,312.3z"/>
			<path class="st6" d="M214.7,320.2l-9.6-5.6c-0.8-0.5-0.7-1.2,0.2-1.8l9.2-5.3c0.9-0.5,2.1-0.6,3.1-0.1l9.6,5.6
				c0.8,0.5,0.7,1.3-0.2,1.8l-9.2,5.3C216.9,320.6,215.7,320.6,214.7,320.2z"/>
			<path class="st6" d="M228.3,328l-9.7-5.5c-0.8-0.5-0.7-1.3,0.2-1.8l9.2-5.3c0.9-0.5,2.1-0.6,3.1-0.1l9.6,5.6
				c0.8,0.5,0.7,1.2-0.2,1.8l-9.2,5.3C230.4,328.4,229.3,328.4,228.3,328z"/>
			<path class="st6" d="M242,335.9l-9.6-5.5c-0.8-0.5-0.7-1.3,0.2-1.8l9.2-5.3c0.9-0.5,2.1-0.6,3.1-0.1l9.6,5.6
				c0.8,0.5,0.7,1.2-0.2,1.8l-9.2,5.3C244.1,336.3,242.9,336.3,242,335.9z"/>
			<path class="st6" d="M255.6,343.8l-9.6-5.6c-0.8-0.5-0.7-1.2,0.2-1.8l9.2-5.3c0.9-0.5,2.1-0.6,3.1-0.1l9.6,5.6
				c0.8,0.5,0.7,1.3-0.2,1.8l-9.2,5.3C257.7,344.1,256.5,344.2,255.6,343.8z"/>
			<path class="st6" d="M286,361.3L259.5,346c-0.8-0.5-0.7-1.2,0.2-1.8l9.2-5.3c0.9-0.5,2.1-0.6,3.1-0.1l26.5,15.3
				c0.8,0.5,0.7,1.3-0.2,1.8l-9.2,5.3C288.1,361.7,287,361.8,286,361.3z"/>
			<path class="st6" d="M105.9,257.3l-13.1-7.6c-0.8-0.4-0.7-1.3,0.2-1.8l9.2-5.3c0.9-0.5,2.1-0.6,3.1-0.1l13.1,7.6
				c0.8,0.4,0.7,1.2-0.2,1.8l-9.2,5.3C108,257.7,106.9,257.8,105.9,257.3z"/>
			<path class="st6" d="M339.3,330.6L146,219c-0.8-0.4-0.7-1.3,0.2-1.8l4.6-2.6c0.9-0.5,2.1-0.6,3.1-0.1L347.2,326
				c0.8,0.5,0.7,1.2-0.2,1.8l-4.6,2.6C341.4,331,340.3,331,339.3,330.6z"/>
			<path class="st0" d="M219.6,343.3c-0.3,0.6-0.7,1.1-1.3,1.4l-53.2,30.7c-1.8,1-4,1.1-5.9,0.3l-90.9-52.5c-0.4-0.2-0.7-0.6-0.9-1
				c-0.3-0.8,0.1-1.7,1.3-2.4l53.2-30.7c1.8-1,4-1.1,5.9-0.2l90.9,52.5C219.5,341.6,219.9,342.4,219.6,343.3z"/>
			<path class="st7" d="M219.6,343.3c-0.3,0.6-0.7,1.1-1.3,1.4l-53.2,30.7c-1.8,1-4,1.1-5.9,0.3l-90.9-52.5c-0.4-0.2-0.7-0.6-0.9-1
				c0.3-0.6,0.7-1.1,1.3-1.3l53.2-30.7c1.8-1,4-1.1,5.9-0.3l90.9,52.5C219.1,342.5,219.4,342.8,219.6,343.3z"/>
			<path class="st6" d="M354,322.1L160.7,210.5c-0.9-0.6-1.4-1.6-1.4-2.7v-2.3c0-1.1,0.6-1.5,1.4-1.1L354,316
				c0.9,0.6,1.4,1.6,1.4,2.7v2.3C355.4,322.1,354.8,322.5,354,322.1z"/>
			<path class="st8" d="M238.3,103.8l-67-38.7c-0.6-0.5-1-1.2-1-1.9v-4.7c0-0.8,0.5-1.1,1-0.8l67,38.7c0.6,0.5,1,1.2,1,1.9v4.7
				C239.3,103.7,238.8,104.1,238.3,103.8z"/>
			<path class="st8" d="M221.1,104.9l-49.5-28.5c-0.6-0.5-1-1.2-1-2v-2.3c0-0.8,0.4-1.1,1-0.8l49.4,28.5c0.6,0.5,1,1.2,1,2v2.3
				C222.1,104.9,221.7,105.2,221.1,104.9z"/>
			<path class="st8" d="M221.1,113.7l-49.5-28.6c-0.6-0.5-1-1.2-1-2v-2.3c0-0.8,0.4-1.1,1-0.8l49.4,28.6c0.6,0.4,1,1.2,1,1.9v2.3
				C222.1,113.7,221.7,114,221.1,113.7z"/>
			<path class="st9" d="M211.7,117.1L171.6,94c-0.6-0.4-1-1.2-1-1.9v-2.4c0-0.8,0.4-1.1,1-0.8l40.1,23.2c0.6,0.5,1,1.2,1,2v2.3
				C212.7,117.1,212.3,117.4,211.7,117.1z"/>
			<path class="st8" d="M238.3,196.3l-67-38.7c-0.6-0.5-1-1.2-1-2V151c0-0.8,0.5-1.1,1-0.8l67,38.7c0.6,0.5,1,1.2,1,2v4.7
				C239.3,196.3,238.8,196.6,238.3,196.3z"/>
			<path class="st8" d="M221.1,197.4l-49.4-28.6c-0.6-0.4-1-1.2-1-1.9v-2.3c0-0.8,0.4-1.1,1-0.8l49.4,28.6c0.6,0.5,1,1.2,1,1.9v2.3
				C222.1,197.4,221.7,197.7,221.1,197.4z"/>
			<path class="st8" d="M221.1,206.2l-49.4-28.6c-0.6-0.5-1-1.2-1-1.9v-2.3c0-0.8,0.4-1.1,1-0.8l49.4,28.6c0.6,0.5,1,1.2,1,2v2.3
				C222.1,206.2,221.7,206.5,221.1,206.2z"/>
			<path class="st9" d="M211.7,209.6l-40.1-23.2c-0.6-0.5-1-1.2-1-1.9v-2.3c0-0.8,0.4-1.1,1-0.8l40.1,23.2c0.6,0.5,1,1.2,1,1.9v2.3
				C212.7,209.6,212.3,210,211.7,209.6z"/>
			<path class="st10" d="M256.2,207.8c0,0,7.4,6.2,18-2.3c7.6-6.3,14.4-2.7,18.2-0.5s9.3,3.4,19.7,22.3c2.2,3.7,5.3,6.8,9,9.1
				c5.6,3.2,8.3,1.7,12.7-5s7.3-14,15.4-9.2V289l-93.8-54.1v-27.5L256.2,207.8z"/>
			<path class="st8" d="M235.8,179.4l-64.2-37.1c-0.6-0.5-1-1.2-1-1.9v-37c0-0.8,0.4-1.1,1-0.8l64.2,37.1c0.6,0.5,1,1.2,1,1.9v37
				C236.8,179.4,236.4,179.8,235.8,179.4z"/>
			<polyline class="st11" points="255.4,206.2 255.4,234.9 349.2,289 349.2,222.2 			"/>
			<line class="st11" x1="292.3" y1="205.3" x2="292.3" y2="256.1"/>
			<line class="st11" x1="321" y1="237.4" x2="321" y2="272.7"/>
			<path class="st12" d="M255.4,207.3c16.6,10.3,19-13,37.1-2.5s15.6,24.1,29,31.8s13.7-22.5,27.7-14.4"/>
			<ellipse transform="matrix(0.866 -0.5 0.5 0.866 -63.4847 173.6645)" class="st9" cx="292.3" cy="205.3" rx="1.8" ry="3.1"/>
			<ellipse transform="matrix(0.867 -0.4983 0.4983 0.867 -64.541 204.405)" class="st9" cx="350.7" cy="223.1" rx="1.8" ry="3.1"/>
			
				<ellipse transform="matrix(0.867 -0.4983 0.4983 0.867 -75.5982 192.2268)" class="st9" cx="322.3" cy="237.7" rx="1.8" ry="3.1"/>
			
				<ellipse transform="matrix(0.867 -0.4983 0.4983 0.867 -69.6079 155.4937)" class="st9" cx="256.5" cy="208.2" rx="1.8" ry="3.1"/>
			<path class="st8" d="M258.1,158.1l-3.8-2.2c-0.6-0.5-1-1.2-1-1.9v-18.6c0-0.8,0.5-1.1,1-0.8l3.8,2.2c0.6,0.5,1,1.2,1,1.9v18.6
				C259.1,158,258.7,158.4,258.1,158.1z"/>
			<path class="st9" d="M267,163.2l-3.9-2.2c-0.6-0.5-1-1.2-1-1.9v-37.8c0-0.8,0.5-1.1,1-0.8l3.9,2.2c0.6,0.5,1,1.2,1,2v37.7
				C268,163.1,267.5,163.5,267,163.2z"/>
			<path class="st8" d="M284.7,173.4l-3.8-2.2c-0.6-0.5-1-1.2-1-1.9v-34.1c0-0.8,0.5-1.1,1-0.8l3.8,2.2c0.6,0.5,1,1.2,1,1.9v34.1
				C285.7,173.4,285.2,173.7,284.7,173.4z"/>
			<path class="st9" d="M293.5,178.5l-3.8-2.2c-0.6-0.5-1-1.2-1-1.9v-28.3c0-0.8,0.5-1.1,1-0.8l3.8,2.2c0.6,0.5,1,1.2,1,1.9v28.3
				C294.5,178.5,294.1,178.8,293.5,178.5z"/>
			<path class="st8" d="M311.1,188.7l-3.8-2.2c-0.6-0.5-1-1.2-1-2v-14c0-0.8,0.5-1.1,1-0.8l3.8,2.2c0.6,0.5,1,1.2,1,1.9v14
				C312.2,188.7,311.7,189,311.1,188.7z"/>
			<path class="st9" d="M320,193.8l-3.9-2.2c-0.6-0.5-1-1.2-1-1.9v-47.5c0-0.8,0.5-1.1,1-0.8l3.9,2.2c0.6,0.5,1,1.2,1,1.9V193
				C321,193.8,320.6,194.1,320,193.8z"/>
			<path class="st8" d="M341.6,206.3l-3.9-2.3c-0.6-0.5-1-1.2-1-1.9v-14c0-0.8,0.5-1.1,1-0.8l3.9,2.2c0.6,0.5,1,1.2,1,1.9v14
				C342.6,206.2,342.2,206.6,341.6,206.3z"/>
			<path class="st9" d="M350.4,211.4l-3.9-2.2c-0.6-0.5-1-1.2-1-1.9v-18.6c0-0.8,0.5-1.1,1-0.8l3.9,2.2c0.6,0.5,1,1.2,1,1.9v18.6
				C351.5,211.4,351,211.7,350.4,211.4z"/>
		</g>
		<g id="Girl_12">
			<path id="_Контур_" class="st13" d="M210.3,1.3c0.9-1.4,7.4-2.3,9.6,3.3c0.8,2.1,0.7,7.5,1.4,10.9s2.3,5.3,2.9,8
				s-0.4,7.3-7,8.1c-6.6,0.8-11.6-1.5-13.2-3.6s-1.6-6.6,0-9s2.9-4.4,2.8-7.5L210.3,1.3z"/>
			<path id="_Контур_2" class="st13" d="M214.7,0.4c0,0-5-1.4-7.9,1.2c-2,1.8-2.8,4.7-2.1,7.3c0.4,1.6,1.2,3.7,2.4,3.8
				S214.7,0.4,214.7,0.4z"/>
			<path id="_Контур_3" class="st14" d="M216.5,13.8c0,0-0.3,5.5-0.2,5.9s2.1,0.8,2.7,1.3s-3,6.1-4.8,6.9s-7.4-1.3-7.8-4.1
				c-0.4-2.6,1.6-4.6,2.4-5.3c0.5,0,1,0,1.5,0l0.2-2.7C213,15,216.5,13.8,216.5,13.8z"/>
			<path id="_Контур_4" class="st14" d="M200.4,43.1c-1.6,2.1-3.4,4-5.5,5.7c-0.7,0.7-1.3,1.4-1.9,2.2c-1,1.1-2.3,2-3.7,2.4
				c-1.2,0.3-1.8,0.2-2,0s-0.1-0.6,0.4-0.8c0.9-0.3,1.7-0.7,2.4-1.3c0,0-1.1,0.5-1.9,0.8c-0.6,0.2-1.3,0.4-2,0.4
				c-0.7,0-1.4-0.8-0.9-1s1-0.3,2.1-0.7c0.6-0.2,1.1-0.5,1.6-0.8c-0.7,0.2-1.5,0.4-2.3,0.5c-0.6,0.1-1.3,0-1.9-0.2
				c-0.3-0.1-0.6-0.7,0.1-0.9c0.9-0.1,1.8-0.3,2.7-0.6c0.8-0.4,1.4-0.8,1.2-0.9s-0.7,0.2-1.5,0.1s-1.6-0.6-1.6-1s0.2-0.2,1-0.3
				c0.9-0.2,1.8-0.4,2.6-0.5c0.9,0,1.8-0.1,2.6-0.3c0.9-0.3,2.9-2.7,4.4-4.9c1.7-2.5,3-5.2,3.9-8c0.9-3,2-8.7,2.8-10.7
				s2.1-2.9,3.4-2.9c1.5,0,2.2,1.9,1.8,3.7C207.8,26.1,204.5,37.7,200.4,43.1z"/>
			<path id="_Контур_5" class="st15" d="M217.3,20.2c1.5,0.2,3.3,1.1,3.5,1.9c0.6,3,0.5,6.2-0.4,9.2
				c-1.3,3.5-2.9,9.9-3.6,11.4c-4,0.6-8-0.2-11.5-2.3c0,0-0.3-6.1-0.3-8.2c-5-4.3-0.7-9.7,3.5-13.8c0.5,0,1,0,1.5,0
				c0,0-3.8,4.4-1.1,7C214.4,23.8,215.5,21.2,217.3,20.2z"/>
			<path id="_Контур_6" class="st14" d="M206.3,7L206.3,7c0.6-3.5,3.1-6.2,6.8-6c3.9,0.2,6.8,3.5,6.6,7.4c0,0,0,0,0,0
				c-0.1,2.2-1.3,4.1-3.1,5.4c-0.1,0.5-0.3,1.1-0.6,1.6c-1.3,1.5-4.7,2.4-5.8,2.5c-1,0-1.8-0.9-2.7-2.4C205.5,12.3,206,8.8,206.3,7z
				"/>
			<path class="st13" d="M214.1,1.1c2.6,0.5,4.6,1.2,5.3,3.7c0.5,1.7,1.1,5,0.5,6.4l-0.4,1l-3.1,1.6c0,0-1.4-1.2-1-4.7
				c0-0.5-0.2-0.9-0.4-1.3c-0.2-0.3-0.3-0.7-0.4-1.1c-0.4-0.9-1.1-1.7-2-2.2c-2-0.9-4.3-0.8-6.1,0.3C207.9,1.9,211,0.4,214.1,1.1z"
				/>
			<path class="st13" d="M200.1,85.5c-1.3,1-3.3,0.3-3.4,0.4c-1.5,1.3-3.1,2.5-4.7,3.6c-0.8,0.6-2.1,1.5-1.8,2.7
				c0.4,2.2,3.9,1.5,5.2,0.8s2.4-1.8,3.6-2.5c0.9-0.6,1.8-0.8,1.9-2C200.9,87.9,200.3,85.5,200.1,85.5z"/>
			<path class="st16" d="M200.8,88.2c-0.2,1.1-1,1.4-1.9,1.9c-1.3,0.8-2.4,1.9-3.7,2.6s-4.2,1.2-5.1-0.3c0.5,2.1,3.9,1.4,5.2,0.8
				s2.4-1.8,3.6-2.5c0.9-0.6,1.8-0.8,1.9-2C200.9,88.4,200.9,88.3,200.8,88.2z"/>
			<path class="st13" d="M193.8,82c-1.2,1-3,0.4-3.1,0.5c-1.4,1.2-2.8,2.3-4.3,3.3c-0.7,0.6-1.9,1.4-1.7,2.5c0.4,2,3.6,1.4,4.8,0.8
				s2.2-1.6,3.3-2.3c0.8-0.5,1.6-0.8,1.7-1.8C194.5,83.9,194.3,82.9,193.8,82z"/>
			<path class="st16" d="M194.6,84.5c-0.2,1-0.9,1.3-1.8,1.8c-1.1,0.7-2.1,1.7-3.4,2.4s-3.9,1.1-4.7-0.3c0.4,1.9,3.6,1.3,4.8,0.7
				s2.2-1.6,3.3-2.3c0.8-0.5,1.6-0.8,1.7-1.8C194.6,84.8,194.6,84.7,194.6,84.5z"/>
			<path class="st14" d="M211.7,44.1c-3.5,0.5-7.1,0-10.3-1.5c0.1,1.1,0.1,2.1,0.1,2.1c-4.2,3-12.6,7.9-13.1,11.4
				c0.6,10.9,2.2,26.4,2.7,26.6c1.3,0.6,2.2,0.5,2.9-0.1c0,0,2.6-9.2,1.9-22.7c0,0,14.6-6.5,15.6-10c0.4-1.4,0.6-2.9,0.4-4.4
				C211.8,45,211.7,44.5,211.7,44.1z"/>
			<path class="st14" d="M216.5,42.7c-2.8,1.2-5.9,1.7-8.9,1.2c0,1.5,0.2,4.2,0.2,4.2c-4.2,2.9-12.6,7.9-13.1,11.4
				c0.5,10.9,1.6,26.6,2,26.8c1.1,0.5,2.5,0.3,3.5-0.4c0,0,2.6-9.1,1.9-22.6c0-0.3,12.6-6.4,14.1-8.1s1.9-4.1,1.9-6.4
				C218,46.7,217.5,44.6,216.5,42.7z"/>
			<path class="st17" d="M219.6,45c0,0,4.6,8.2-3.1,12.5c-8.2,4.5-13.1,5.5-13.1,5.5l-1.2,0.3c0.4,2.8,0.4,5.7,0,8.6
				c0,0-5.8,2-13.3-4.5l-2.5-7.9l-0.3-2.1c-0.3-1.5,0.2-3,1.2-4c1.8-1.6,7.4-5.8,10.9-8.1s6.3-4.6,6.3-4.6l0.6-0.6
				c0,0,4.2,3.3,11.8,2.2C218.1,42.9,218.9,43.9,219.6,45z"/>
			<path id="_Контур_7" class="st14" d="M215,57.2c0.7-0.6,1.5-1.2,2.2-1.8c0.8-0.4,1.6-1,2.3-1.6c0.7-0.7,1.8-3.7,2.3-6.6
				c0.5-3.3,0.5-6.6-0.2-9.8c-1-3.9-2.3-7.7-3.9-11.3c-1-2.2-0.4-3.5,0.5-4.5c1.1-1.1,2.3-1.1,3.6,1.9c1.9,4.3,3.2,8.7,4.1,13.3
				c0.5,3.3,0.5,6.7-0.1,10c-0.5,2.9-1.4,5.7-2.7,8.4c-0.3,0.8-0.4,1.5-0.9,3c-0.4,1.6-1.3,3-2.4,4.2c-1,0.9-1.5,1.1-1.8,1
				s-0.3-0.5,0.1-1c0.7-0.7,1.3-1.5,1.7-2.5c0,0-0.9,1.1-1.4,1.7c-0.5,0.6-1.1,1-1.7,1.4c-0.6,0.4-1.6-0.1-1.2-0.6s0.9-0.8,1.7-1.7
				c0.4-0.5,0.8-1,1.1-1.6c-0.6,0.6-1.2,1.1-1.9,1.6c-0.5,0.4-1.1,0.7-1.8,0.8c-0.3,0-0.8-0.4-0.2-1c0.8-0.6,1.6-1.2,2.2-2
				c0.6-0.8,0.9-1.4,0.7-1.4s-0.5,0.5-1.3,0.9s-1.7,0.2-1.9-0.2S214.3,57.7,215,57.2z"/>
			<path class="st18" d="M223.9,27.7c0,0-2.8,2.5-5.9,2l-1.3-5.3c0,0-0.8-2.8,1.5-3.8S222.9,22.3,223.9,27.7z"/>
			<path class="st18" d="M208.4,18.5c0,0-3.1-0.9-6.3,5.8l1.2,0.7C204.9,22.7,206.6,20.5,208.4,18.5z"/>
			<g id="_Группа_">
				<g id="_Группа_2">
					<path id="_Контур_8" class="st15" d="M187.4,47.6l10.9-6.3c0.2-0.1,0.4-0.1,0.6,0l19,11l-11.2,6.5L187.4,47.6z"/>
					<path class="st19" d="M207,56.3l0.8,0.5c0.1,0,0.1,0.1,0,0.2l-0.8,0.5c-0.1,0-0.2,0-0.3,0l-0.8-0.5c-0.1,0-0.1-0.1,0-0.2
						l0.8-0.5C206.8,56.3,206.9,56.3,207,56.3z"/>
					<path class="st19" d="M205.8,55.7l0.8,0.5c0.1,0,0.1,0.1,0,0.2l-0.8,0.5c-0.1,0-0.2,0-0.3,0l-0.8-0.5c-0.1,0-0.1-0.1,0-0.2
						l0.8-0.5C205.7,55.6,205.8,55.6,205.8,55.7z"/>
					<path class="st19" d="M204.7,55l0.8,0.5c0.1,0,0.1,0.1,0,0.2l-0.8,0.5c-0.1,0-0.2,0-0.3,0l-0.8-0.5c-0.1,0-0.1-0.1,0-0.2
						l0.8-0.5C204.5,55,204.6,55,204.7,55z"/>
					<path class="st19" d="M203.5,54.3l0.8,0.5c0.1,0,0,0.1,0,0.2l-0.8,0.5c-0.1,0-0.2,0-0.3,0l-0.8-0.5c-0.1,0-0.1-0.1,0-0.2
						l0.8-0.5C203.3,54.2,203.4,54.2,203.5,54.3z"/>
					<path class="st19" d="M202.3,53.6l0.8,0.5c0.1,0,0.1,0.1,0,0.2l-0.8,0.5c-0.1,0-0.2,0-0.3,0l-0.8-0.5c-0.1,0-0.1-0.1,0-0.2
						l0.8-0.5C202.1,53.6,202.2,53.6,202.3,53.6z"/>
					<path class="st19" d="M201.1,52.9l0.8,0.5c0.1,0,0.1,0.1,0,0.2l-0.8,0.5c-0.1,0-0.2,0-0.3,0l-0.8-0.5c-0.1,0-0.1-0.1,0-0.2
						l0.8-0.5C200.9,52.9,201.1,52.9,201.1,52.9z"/>
					<path class="st19" d="M200,52.3l0.8,0.5c0.1,0,0.1,0.1,0,0.2l-0.8,0.5c-0.1,0-0.2,0-0.3,0l-0.8-0.5c-0.1,0-0.1-0.1,0-0.2
						l0.8-0.5C199.8,52.2,199.9,52.2,200,52.3z"/>
					<path class="st19" d="M198.8,51.6l0.8,0.5c0.1,0,0.1,0.1,0,0.2l-0.8,0.5c-0.1,0-0.2,0-0.3,0l-0.9-0.5c-0.1,0-0.1-0.1,0-0.2
						l0.8-0.5C198.6,51.5,198.7,51.5,198.8,51.6z"/>
					<path class="st19" d="M197.6,50.9l0.8,0.5c0.1,0,0.1,0.1,0,0.2l-0.8,0.5c-0.1,0-0.2,0-0.3,0l-0.8-0.5c-0.1,0-0.1-0.1,0-0.2
						l0.8-0.5C197.4,50.9,197.5,50.9,197.6,50.9z"/>
					<path class="st19" d="M196.4,50.2l0.8,0.5c0.1,0,0.1,0.1,0,0.2l-0.8,0.5c-0.1,0-0.2,0-0.3,0l-0.8-0.5c-0.1,0-0.1-0.1,0-0.2
						l0.8-0.5C196.3,50.2,196.4,50.2,196.4,50.2z"/>
					<path class="st19" d="M195.3,49.5l0.8,0.5c0.1,0,0.1,0.1,0,0.2l-0.8,0.5c-0.1,0-0.2,0-0.3,0l-0.8-0.5c-0.1,0-0.1-0.1,0-0.2
						l0.8-0.5C195.1,49.5,195.2,49.5,195.3,49.5z"/>
					<path class="st19" d="M194.1,48.9l0.8,0.5c0.1,0,0.1,0.1,0,0.2l-0.8,0.5c-0.1,0-0.2,0-0.3,0l-0.8-0.5c-0.1,0-0.1-0.1,0-0.2
						l0.8-0.5C193.9,48.8,194,48.8,194.1,48.9z"/>
					<path class="st19" d="M192.9,48.2l0.8,0.5c0.1,0,0.1,0.1,0,0.2l-0.8,0.5c-0.1,0-0.2,0-0.3,0l-0.8-0.5c-0.1,0-0.1-0.1,0-0.2
						l0.8-0.5C192.7,48.1,192.8,48.1,192.9,48.2z"/>
					<path class="st19" d="M191.2,47.2l1.4,0.8c0.1,0,0.1,0.1,0,0.2l-0.8,0.5c-0.1,0-0.2,0-0.3,0l-1.4-0.8c-0.1,0-0.1-0.1,0-0.2
						l0.8-0.5C191,47.1,191.1,47.1,191.2,47.2z"/>
					<path class="st19" d="M206.4,54.7l0.8,0.5c0.1,0,0.1,0.1,0,0.2l-0.8,0.5c-0.1,0-0.2,0-0.3,0l-0.8-0.5c-0.1,0-0.1-0.1,0-0.2
						l0.8-0.5C206.2,54.6,206.3,54.6,206.4,54.7z"/>
					<path class="st19" d="M205.2,54l0.8,0.5c0.1,0,0.1,0.1,0,0.2l-0.8,0.5c-0.1,0-0.2,0-0.3,0l-0.8-0.5c-0.1,0-0.1-0.1,0-0.2
						L205,54C205.1,54,205.2,54,205.2,54z"/>
					<path class="st19" d="M204.1,53.3l0.8,0.5c0.1,0,0.1,0.1,0,0.2l-0.8,0.5c-0.1,0-0.2,0-0.3,0l-0.8-0.5c-0.1,0-0.1-0.1,0-0.2
						l0.8-0.5C203.9,53.3,204,53.3,204.1,53.3z"/>
					<path class="st19" d="M202.9,52.6l0.8,0.5c0.1,0,0.1,0.1,0,0.2l-0.8,0.5c-0.1,0-0.2,0-0.3,0l-0.8-0.5c-0.1,0-0.1-0.1,0-0.2
						l0.8-0.5C202.7,52.6,202.8,52.6,202.9,52.6z"/>
					<path class="st19" d="M201.7,52l0.8,0.5c0.1,0,0.1,0.1,0,0.2l-0.8,0.5c-0.1,0-0.2,0-0.3,0l-0.8-0.5c-0.1,0-0.1-0.1,0-0.2
						l0.8-0.5C201.5,52,201.6,52,201.7,52z"/>
					<path class="st19" d="M200.5,51.3l0.8,0.5c0.1,0,0.1,0.1,0,0.2l-0.8,0.5c-0.1,0-0.2,0-0.3,0l-0.8-0.5c-0.1,0-0.1-0.1,0-0.2
						l0.8-0.5C200.3,51.2,200.5,51.2,200.5,51.3z"/>
					<path class="st19" d="M199.4,50.6l0.8,0.5c0.1,0,0.1,0.1,0,0.2l-0.8,0.5c-0.1,0-0.2,0-0.3,0l-0.8-0.5c-0.1,0-0.1-0.1,0-0.2
						l0.8-0.5C199.2,50.5,199.3,50.5,199.4,50.6z"/>
					<path class="st19" d="M198.2,49.9l0.8,0.5c0.1,0,0.1,0.1,0,0.2l-0.8,0.5c-0.1,0-0.2,0-0.3,0l-0.8-0.5c-0.1,0-0.1-0.1,0-0.2
						l0.8-0.5C198,49.9,198.1,49.9,198.2,49.9z"/>
					<path class="st19" d="M197,49.2l0.8,0.5c0.1,0,0.1,0.1,0,0.2l-0.8,0.5c-0.1,0-0.2,0-0.3,0l-0.8-0.5c-0.1,0-0.1-0.1,0-0.2
						l0.8-0.5C196.8,49.2,196.9,49.2,197,49.2z"/>
					<path class="st19" d="M195.8,48.5l0.9,0.5c0.1,0,0.1,0.1,0,0.2l-0.8,0.5c-0.1,0-0.2,0-0.3,0l-0.8-0.5c-0.1,0-0.1-0.1,0-0.2
						l0.8-0.5C195.7,48.5,195.8,48.5,195.8,48.5z"/>
					<path class="st19" d="M194.7,47.9l0.8,0.5c0.1,0,0.1,0.1,0,0.2l-0.8,0.5c-0.1,0-0.2,0-0.3,0l-0.8-0.5c-0.1,0-0.1-0.1,0-0.2
						l0.8-0.5C194.5,47.8,194.6,47.8,194.7,47.9z"/>
					<path class="st19" d="M193.5,47.2l0.8,0.5c0.1,0,0.1,0.1,0,0.2l-0.8,0.5c-0.1,0-0.2,0-0.3,0l-0.8-0.5c-0.1,0-0.1-0.1,0-0.2
						l0.8-0.5C193.3,47.1,193.4,47.1,193.5,47.2z"/>
					<path class="st19" d="M207.6,55.3l1.4,0.8c0.1,0,0.1,0.1,0,0.2l-0.8,0.5c-0.1,0-0.2,0-0.3,0l-1.4-0.8c-0.1,0-0.1-0.1,0-0.2
						l0.8-0.5C207.4,55.3,207.5,55.3,207.6,55.3z"/>
					<path class="st19" d="M191.2,47.1l0.8,0.5c0.1,0,0.2,0,0.3,0l0.8-0.5c0,0,0.1-0.1,0-0.1c0,0,0,0,0,0h-0.1c0,0-0.1-0.1,0-0.1
						c0,0,0,0,0,0l0.9-0.5c0,0,0.1-0.1,0-0.1c0,0,0,0,0,0l-0.5-0.3c-0.1,0-0.2,0-0.3,0l-0.8,0.5l-0.2,0.1l-0.1,0.1l-0.1,0.1
						l-0.7,0.4C191.2,47,191.2,47.1,191.2,47.1z"/>
					<path class="st19" d="M211.6,53.7l0.8,0.5c0.1,0,0.1,0.1,0,0.2l-0.8,0.5c-0.1,0-0.2,0-0.3,0l-0.8-0.5c-0.1,0-0.1-0.1,0-0.2
						l0.8-0.5C211.4,53.7,211.5,53.7,211.6,53.7z"/>
					<path class="st19" d="M210.4,53l0.8,0.5c0.1,0,0.1,0.1,0,0.2l-0.8,0.5c-0.1,0-0.2,0-0.3,0l-0.8-0.5c-0.1,0-0.1-0.1,0-0.2
						l0.8-0.5C210.2,53,210.3,53,210.4,53z"/>
					<path class="st19" d="M209.2,52.3l0.8,0.5c0.1,0,0.1,0.1,0,0.2l-0.8,0.5c-0.1,0-0.2,0-0.3,0l-0.8-0.5c-0.1,0-0.1-0.1,0-0.2
						l0.8-0.5C209,52.3,209.1,52.3,209.2,52.3z"/>
					<path class="st19" d="M199.2,46.6l0.8,0.5c0.1,0,0.1,0.1,0,0.2l-0.8,0.5c-0.1,0-0.2,0-0.3,0l-0.8-0.5c-0.1,0-0.1-0.1,0-0.2
						l0.8-0.5C199.1,46.5,199.2,46.5,199.2,46.6z"/>
					<path class="st19" d="M198.1,45.9l0.8,0.5c0.1,0,0.1,0.1,0,0.2l-0.8,0.5c-0.1,0-0.2,0-0.3,0l-0.8-0.5c-0.1,0-0.1-0.1,0-0.2
						l0.8-0.5C197.9,45.9,198,45.9,198.1,45.9z"/>
					<path class="st19" d="M196.9,45.2l0.8,0.5c0.1,0,0.1,0.1,0,0.2l-0.8,0.5c-0.1,0-0.2,0-0.3,0l-0.8-0.5c-0.1,0-0.1-0.1,0-0.2
						l0.8-0.5C196.7,45.2,196.8,45.2,196.9,45.2z"/>
					<path class="st19" d="M195.7,44.5l0.8,0.5c0.1,0,0.1,0.1,0,0.2l-0.8,0.5c-0.1,0-0.2,0-0.3,0l-0.8-0.5c-0.1,0-0.1-0.1,0-0.2
						l0.8-0.5C195.6,44.5,195.6,44.5,195.7,44.5z"/>
					<path class="st19" d="M207.8,51.5l1.1,0.7c0.1,0,0.1,0.1,0,0.2l-0.8,0.5c-0.1,0-0.2,0-0.3,0l-1.2-0.6c-0.1,0-0.1-0.1,0-0.2
						l0.8-0.5C207.6,51.4,207.7,51.4,207.8,51.5z"/>
					<path class="st19" d="M200.4,47.3l1.1,0.7c0.1,0,0.1,0.1,0,0.2l-0.8,0.5c-0.1,0-0.2,0-0.3,0l-1.1-0.7c-0.1,0-0.1-0.1,0-0.2
						l0.8-0.5C200.2,47.2,200.3,47.2,200.4,47.3z"/>
					<path class="st19" d="M201.9,48.1l5.5,3.2c0.1,0,0.1,0.1,0,0.2l-0.8,0.5c-0.1,0-0.2,0-0.3,0l-5.5-3.2c-0.1,0-0.1-0.1,0-0.2
						l0.8-0.5C201.7,48.1,201.8,48.1,201.9,48.1z"/>
					<path class="st19" d="M207.2,53.8l0.8,0.5c0.1,0,0.1,0.1,0,0.2l-0.8,0.5c-0.1,0-0.2,0-0.3,0l-0.8-0.5c-0.1,0-0.1-0.1,0-0.2
						l0.8-0.5C207,53.8,207.2,53.8,207.2,53.8z"/>
					<path class="st19" d="M206.1,53.1l0.8,0.5c0.1,0,0.1,0.1,0,0.2l-0.8,0.5c-0.1,0-0.2,0-0.3,0l-0.8-0.5c-0.1,0-0.1-0.1,0-0.2
						l0.8-0.5C205.9,53.1,206,53.1,206.1,53.1z"/>
					<path class="st19" d="M204.9,52.5l0.8,0.5c0.1,0,0.1,0.1,0,0.2l-0.8,0.5c-0.1,0-0.2,0-0.3,0l-0.8-0.5c-0.1,0-0.1-0.1,0-0.2
						l0.8-0.5C204.7,52.4,204.8,52.4,204.9,52.5z"/>
					<path class="st19" d="M203.7,51.8l0.8,0.5c0.1,0,0.1,0.1,0,0.2l-0.8,0.5c-0.1,0-0.2,0-0.3,0l-0.8-0.5c-0.1,0-0.1-0.1,0-0.2
						l0.8-0.5C203.5,51.7,203.6,51.7,203.7,51.8z"/>
					<path class="st19" d="M202.5,51.1l0.8,0.5c0.1,0,0.1,0.1,0,0.2l-0.8,0.5c-0.1,0-0.2,0-0.3,0l-0.8-0.5c-0.1,0-0.1-0.1,0-0.2
						l0.8-0.5C202.4,51.1,202.5,51.1,202.5,51.1z"/>
					<path class="st19" d="M201.4,50.4l0.8,0.5c0.1,0,0.1,0.1,0,0.2l-0.8,0.5c-0.1,0-0.2,0-0.3,0l-0.8-0.5c-0.1,0-0.1-0.1,0-0.2
						l0.8-0.5C201.2,50.4,201.3,50.4,201.4,50.4z"/>
					<path class="st19" d="M200.2,49.8l0.8,0.5c0.1,0,0.1,0.1,0,0.2l-0.8,0.5c-0.1,0-0.2,0-0.3,0l-0.8-0.5c-0.1,0-0.1-0.1,0-0.2
						l0.8-0.5C200,49.7,200.1,49.7,200.2,49.8z"/>
					<path class="st19" d="M199,49.1l0.8,0.5c0.1,0,0.1,0.1,0,0.2l-0.8,0.5c-0.1,0-0.2,0-0.3,0l-0.8-0.5c-0.1,0-0.1-0.1,0-0.2
						l0.8-0.5C198.8,49,198.9,49,199,49.1z"/>
					<path class="st19" d="M197.8,48.4l0.8,0.5c0.1,0,0.1,0.1,0,0.2l-0.8,0.5c-0.1,0-0.2,0-0.3,0l-0.8-0.5c-0.1,0-0.1-0.1,0-0.2
						l0.8-0.5C197.7,48.4,197.8,48.4,197.8,48.4z"/>
					<path class="st19" d="M196.7,47.7l0.8,0.5c0.1,0,0.1,0.1,0,0.2l-0.8,0.5c-0.1,0-0.2,0-0.3,0l-0.8-0.5c-0.1,0-0.1-0.1,0-0.2
						l0.8-0.5C196.5,47.7,196.6,47.7,196.7,47.7z"/>
					<path class="st19" d="M195.5,47l0.8,0.5c0.1,0,0.1,0.1,0,0.2l-0.8,0.5c-0.1,0-0.2,0-0.3,0l-0.8-0.5c-0.1,0-0.1-0.1,0-0.2
						l0.8-0.5C195.3,47,195.4,47,195.5,47z"/>
					<path class="st19" d="M194.3,46.4l0.8,0.5c0.1,0,0.1,0.1,0,0.2l-0.8,0.5c-0.1,0-0.2,0-0.3,0l-0.8-0.5c-0.1,0-0.1-0.1,0-0.2
						l0.8-0.5C194.1,46.3,194.2,46.3,194.3,46.4z"/>
					<path class="st19" d="M208.4,54.5l1.7,1c0.1,0,0.1,0.1,0,0.2l-0.8,0.5c-0.1,0-0.2,0-0.3,0l-1.7-1c-0.1,0-0.1-0.1,0-0.2l0.8-0.5
						C208.2,54.5,208.3,54.5,208.4,54.5z"/>
					<path class="st19" d="M209,53.5l0.8,0.5c0.1,0,0.1,0.1,0,0.2l-0.8,0.5c-0.1,0-0.2,0-0.3,0l-0.8-0.5c-0.1,0-0.1-0.1,0-0.2
						l0.8-0.5C208.8,53.5,208.9,53.5,209,53.5z"/>
					<path class="st19" d="M207.8,52.8l0.8,0.5c0.1,0,0.1,0.1,0,0.2l-0.8,0.5c-0.1,0-0.2,0-0.3,0l-0.8-0.5c-0.1,0-0.1-0.1,0-0.2
						l0.8-0.5C207.6,52.8,207.7,52.8,207.8,52.8z"/>
					<path class="st19" d="M206.6,52.1l0.8,0.5c0.1,0,0.1,0.1,0,0.2l-0.8,0.5c-0.1,0-0.2,0-0.3,0l-0.8-0.5c-0.1,0-0.1-0.1,0-0.2
						l0.8-0.5C206.4,52.1,206.5,52.1,206.6,52.1z"/>
					<path class="st19" d="M205.4,51.5l0.8,0.5c0.1,0,0.1,0.1,0,0.2l-0.8,0.5c-0.1,0-0.2,0-0.3,0l-0.8-0.5c-0.1,0-0.1-0.1,0-0.2
						l0.8-0.5C205.3,51.4,205.3,51.4,205.4,51.5z"/>
					<path class="st19" d="M204.3,50.8l0.8,0.5c0.1,0,0.1,0.1,0,0.2l-0.8,0.5c-0.1,0-0.2,0-0.3,0l-0.8-0.5c-0.1,0-0.1-0.1,0-0.2
						l0.8-0.5C204.1,50.7,204.2,50.7,204.3,50.8z"/>
					<path class="st19" d="M203.1,50.1l0.8,0.5c0.1,0,0.1,0.1,0,0.2l-0.8,0.5c-0.1,0-0.2,0-0.3,0l-0.8-0.5c-0.1,0-0.1-0.1,0-0.2
						l0.8-0.5C202.9,50.1,203,50.1,203.1,50.1z"/>
					<path class="st19" d="M201.9,49.4l0.8,0.5c0.1,0,0.1,0.1,0,0.2l-0.8,0.5c-0.1,0-0.2,0-0.3,0l-0.8-0.5c-0.1,0-0.1-0.1,0-0.2
						l0.8-0.5C201.7,49.4,201.8,49.4,201.9,49.4z"/>
					<path class="st19" d="M200.7,48.8l0.8,0.5c0.1,0,0.1,0.1,0,0.2l-0.8,0.5c-0.1,0-0.2,0-0.3,0l-0.8-0.5c-0.1,0-0.1-0.1,0-0.2
						l0.8-0.5C200.6,48.7,200.7,48.7,200.7,48.8z"/>
					<path class="st19" d="M199.6,48.1l0.8,0.5c0.1,0,0.1,0.1,0,0.2l-0.8,0.5c-0.1,0-0.2,0-0.3,0l-0.8-0.5c-0.1,0-0.1-0.1,0-0.2
						l0.8-0.5C199.4,48,199.5,48,199.6,48.1z"/>
					<path class="st19" d="M198.4,47.4l0.8,0.5c0.1,0,0.1,0.1,0,0.2l-0.8,0.5c-0.1,0-0.2,0-0.3,0l-0.8-0.5c-0.1,0-0.1-0.1,0-0.2
						l0.8-0.5C198.2,47.4,198.3,47.4,198.4,47.4z"/>
					<path class="st19" d="M197.2,46.7l0.8,0.5c0.1,0,0.1,0.1,0,0.2l-0.8,0.5c-0.1,0-0.2,0-0.3,0l-0.8-0.5c-0.1,0-0.1-0.1,0-0.2
						l0.8-0.5C197,46.7,197.1,46.7,197.2,46.7z"/>
					<path class="st19" d="M194.6,45.2l2.3,1.3c0.1,0,0.1,0.1,0,0.2l-0.8,0.5c-0.1,0-0.2,0-0.3,0l-2.3-1.3c-0.1,0-0.1-0.1,0-0.2
						l0.8-0.5C194.4,45.2,194.5,45.2,194.6,45.2z"/>
					<path class="st19" d="M210.1,54.2l1.1,0.7c0.1,0,0,0.1,0,0.2l-0.8,0.5c-0.1,0-0.2,0-0.3,0l-1.1-0.7c-0.1,0-0.1-0.1,0-0.2
						l0.8-0.5C209.9,54.1,210,54.1,210.1,54.2z"/>
					<path class="st19" d="M190,47.9l16.7,9.6c0.1,0,0.1,0.1,0,0.2l-0.4,0.2c-0.1,0-0.2,0-0.3,0l-16.7-9.6c-0.1,0,0-0.1,0-0.2
						l0.4-0.2C189.8,47.8,189.9,47.8,190,47.9z"/>
					<polygon id="_Контур_9" class="st20" points="209.7,48.5 209.6,48.5 206.7,50.2 201.6,47.3 201.5,47.2 204.5,45.5 					
						"/>
					<polygon id="_Контур_10" class="st21" points="209.6,48.5 206.7,50.2 201.6,47.3 204.5,45.6 					"/>
					<path id="_Контур_11" class="st21" d="M217.9,52.4v0.3c0,0.4-0.2,0.7-0.5,0.9l-10.1,5.8c-0.3,0.2-0.7,0.2-1,0l-18.3-10.6
						c-0.3-0.2-0.5-0.5-0.5-0.9v-0.3l19.4,11.2L217.9,52.4z"/>
					<path id="_Контур_12" class="st21" d="M206.7,58.8v0.7c-0.2,0-0.4,0-0.5-0.1l-18.3-10.6c-0.3-0.2-0.5-0.5-0.5-0.9v-0.3
						L206.7,58.8z"/>
					<path id="_Контур_13" class="st15" d="M206.4,59c-0.4,0.1-0.7,0.1-1.1-0.1l-18.2-10.6c-0.3-0.2-0.5-0.5-0.6-0.9l-2-11.9
						c0-0.1,0-0.1,0-0.2c0-0.3,0.1-0.6,0.4-0.9l18.9,10.9c0.2,0.1,0.4,0.4,0.4,0.6L206.4,59z"/>
					<path id="_Контур_14" class="st21" d="M206.7,58.8l-0.1,0.1l-0.2,0.1l-2.2-12.9c0-0.3-0.2-0.5-0.4-0.6l-18.9-10.9
						c0.1-0.1,0.2-0.1,0.3-0.2l19,11c0.2,0.1,0.4,0.4,0.4,0.7L206.7,58.8z"/>
				</g>
			</g>
		</g>
		<g id="Men_12">
			<path id="_Контур_42" class="st14" d="M293,86.4c-1.6,2.8-3.5,5.4-5.7,7.8c-0.6,0.7-5.4-1.1-4.4-1.6s4.1-4.8,5.6-7.7
				c1.3-3.4,2.4-7,3.3-10.5c1-3.5,1.8-8.7,2.5-11.2c0.4-1.8,1.8-3.3,3.6-3.7c1.7-0.4,2.8,0.1,2.5,2.1C300,65.3,297.2,79.3,293,86.4z
				"/>
			<path class="st22" d="M295.7,141.5c-1.5,1.2-3.6,0.1-3.7,0.2c-1.7,1.6-3.5,3.1-5.4,4.5c-0.9,0.7-2.3,1.7-2.1,3.1
				c0.5,2.5,4.4,1.7,5.9,1s2.7-2,4.1-2.9c1-0.6,2-0.9,2.2-2.2C296.8,144.4,296,141.5,295.7,141.5z"/>
			<path class="st23" d="M296.7,144.6c-0.2,1.2-1.2,1.6-2.2,2.2c-1.4,0.9-2.7,2.2-4.2,2.9s-4.8,1.4-5.8-0.4c0.5,2.4,4.4,1.6,5.9,0.9
				s2.7-2,4.1-2.9c1-0.6,2-0.9,2.2-2.2C296.7,145,296.7,144.8,296.7,144.6z"/>
			<path class="st22" d="M280.8,133c-1.5,1.2-4-0.1-4.1,0c-1.5,1.5-3.1,3-4.8,4.4c-0.9,0.7-2.4,1.7-2.1,3.1c0.5,2.5,4.4,1.7,5.9,1
				s2.7-2,4.1-2.9c1-0.6,2-0.9,2.2-2.2C282,135.5,281.1,132.9,280.8,133z"/>
			<path class="st23" d="M281.9,135.9c-0.2,1.2-1.2,1.6-2.2,2.2c-1.4,0.9-2.7,2.2-4.2,2.9s-4.8,1.4-5.8-0.4c0.5,2.4,4.4,1.6,5.9,0.9
				s2.7-2,4.1-2.9c1-0.6,2-0.9,2.2-2.2C281.9,136.2,281.9,136.1,281.9,135.9z"/>
			<path id="_Контур_43" class="st9" d="M315.3,94.4c1.6,10.2-2.9,14-8.8,16.1c-4.2,1.6-10.3,3.9-10.3,3.9s0.1,2.2,0.1,7.2
				c0,4.4-0.5,20.5-0.5,20.5c-1.4,0.7-3.1,0.7-4.5-0.1c0,0-2.4-12.3-2.9-17.9c-0.7-7.6-1.8-12.5-1.5-14.1c0.3-1.4,8.6-5.5,11.2-7.7
				l-17.3,5.8c0.3,1.9,0.5,3.8,0.5,5.7c-0.2,6-0.5,18.9-0.5,18.9s-2.4,1.7-4.4,0c0,0-4.4-25.7-3.8-29c0.5-3.2,15.7-9.8,18.4-12.1
				c0.9-0.8,2.2-1.1,3.4-0.9L315.3,94.4z"/>
			<g id="_Группа_5">
				<g id="_Группа_6">
					<path id="_Контур_44" class="st15" d="M273.9,98.7l11.6-6.7c0.2-0.1,0.5-0.1,0.7,0l20.4,11.8l-11.9,6.9L273.9,98.7z"/>
					<path class="st19" d="M295.1,108.2l0.9,0.5c0.1,0,0.1,0.1,0,0.2l-0.9,0.5c-0.1,0.1-0.2,0.1-0.3,0l-0.9-0.5
						c-0.1,0-0.1-0.1,0-0.2l0.8-0.5C295,108.1,295.1,108.1,295.1,108.2z"/>
					<path class="st19" d="M293.9,107.4l0.9,0.5c0.1,0,0.1,0.1,0,0.2l-0.8,0.5c-0.1,0-0.2,0-0.3,0l-0.9-0.5c-0.1,0-0.1-0.1,0-0.2
						l0.9-0.5C293.7,107.4,293.8,107.4,293.9,107.4z"/>
					<path class="st19" d="M292.7,106.7l0.9,0.5c0.1,0,0.1,0.1,0,0.2l-0.9,0.5c-0.1,0-0.2,0-0.3,0l-0.9-0.5c-0.1,0-0.1-0.1,0-0.2
						l0.8-0.5C292.5,106.7,292.6,106.7,292.7,106.7z"/>
					<path class="st19" d="M291.4,106l0.9,0.5c0.1,0,0.1,0.1,0,0.2l-0.9,0.5c-0.1,0.1-0.2,0.1-0.3,0l-0.9-0.5c-0.1,0-0.1-0.1,0-0.2
						l0.8-0.5C291.2,106,291.3,106,291.4,106z"/>
					<path class="st19" d="M290.1,105.3l0.9,0.5c0.1,0,0.1,0.1,0,0.2l-0.9,0.5c-0.1,0-0.2,0-0.3,0l-0.9-0.5c-0.1,0-0.1-0.1,0-0.2
						l0.9-0.5C289.9,105.2,290,105.2,290.1,105.3z"/>
					<path class="st19" d="M288.9,104.6l0.9,0.5c0.1,0,0.1,0.1,0,0.2l-0.8,0.5c-0.1,0-0.2,0-0.3,0l-0.9-0.5c-0.1,0-0.1-0.1,0-0.2
						l0.9-0.5C288.7,104.5,288.8,104.5,288.9,104.6z"/>
					<path class="st19" d="M287.7,103.8l0.9,0.5c0.1,0,0.1,0.1,0,0.2l-0.9,0.5c-0.1,0-0.2,0-0.3,0l-0.9-0.5c-0.1,0-0.1-0.1,0-0.2
						l0.8-0.5C287.4,103.8,287.6,103.8,287.7,103.8z"/>
					<path class="st19" d="M286.4,103.1l0.9,0.5c0.1,0,0.1,0.1,0,0.2l-0.9,0.5c-0.1,0-0.2,0-0.3,0l-0.9-0.5c-0.1,0-0.1-0.1,0-0.2
						l0.8-0.5C286.2,103.1,286.3,103.1,286.4,103.1z"/>
					<path class="st19" d="M285.1,102.4l0.9,0.5c0.1,0,0.1,0.1,0,0.2l-0.8,0.5c-0.1,0-0.2,0-0.3,0L284,103c-0.1,0-0.1-0.1,0-0.2
						l0.9-0.5C284.9,102.3,285,102.3,285.1,102.4z"/>
					<path class="st19" d="M283.9,101.7l0.9,0.5c0.1,0,0.1,0.1,0,0.2l-0.8,0.5c-0.1,0.1-0.2,0.1-0.3,0l-0.9-0.5
						c-0.1,0-0.1-0.1,0-0.2l0.9-0.5C283.7,101.6,283.8,101.6,283.9,101.7z"/>
					<path class="st19" d="M282.6,100.9l0.9,0.5c0.1,0,0.1,0.1,0,0.2l-0.9,0.5c-0.1,0-0.2,0-0.3,0l-0.9-0.5c-0.1,0-0.1-0.1,0-0.2
						l0.8-0.5C282.4,100.9,282.5,100.9,282.6,100.9z"/>
					<path class="st19" d="M281.4,100.2l0.9,0.5c0.1,0,0.1,0.1,0,0.2l-0.9,0.5c-0.1,0-0.2,0-0.3,0l-0.9-0.5c-0.1,0-0.1-0.1,0-0.2
						l0.8-0.5C281.2,100.2,281.3,100.2,281.4,100.2z"/>
					<path class="st19" d="M280.1,99.5l0.9,0.5c0.1,0,0.1,0.1,0,0.2l-0.8,0.5c-0.1,0.1-0.2,0.1-0.3,0l-0.9-0.5c-0.1,0-0.1-0.1,0-0.2
						l0.9-0.5C279.9,99.4,280,99.4,280.1,99.5z"/>
					<path class="st19" d="M278.3,98.4l1.5,0.9c0.1,0,0.1,0.1,0,0.2l-0.8,0.5c-0.1,0-0.2,0-0.3,0l-1.5-0.9c-0.1,0-0.1-0.1,0-0.2
						l0.8-0.5C278.1,98.4,278.2,98.4,278.3,98.4z"/>
					<path class="st19" d="M294.5,106.4l0.9,0.5c0.1,0,0.1,0.1,0,0.2l-0.8,0.5c-0.1,0-0.2,0-0.3,0l-0.9-0.5c-0.1,0-0.1-0.1,0-0.2
						l0.9-0.5C294.3,106.4,294.4,106.4,294.5,106.4z"/>
					<path class="st19" d="M293.2,105.7l0.9,0.5c0.1,0,0.1,0.1,0,0.2l-0.9,0.5c-0.1,0-0.2,0-0.3,0l-0.9-0.5c-0.1,0-0.1-0.1,0-0.2
						l0.8-0.5C293.1,105.6,293.2,105.6,293.2,105.7z"/>
					<path class="st19" d="M292,105l0.9,0.5c0.1,0,0.1,0.1,0,0.2l-0.8,0.5c-0.1,0-0.2,0-0.3,0l-0.9-0.5c-0.1,0-0.1-0.1,0-0.2
						l0.8-0.5C291.8,104.9,291.9,104.9,292,105z"/>
					<path class="st19" d="M290.7,104.2l0.9,0.5c0.1,0,0.1,0.1,0,0.2l-0.9,0.5c-0.1,0-0.2,0-0.3,0l-0.9-0.5c-0.1,0-0.1-0.1,0-0.2
						l0.8-0.5C290.5,104.2,290.6,104.2,290.7,104.2z"/>
					<path class="st19" d="M289.5,103.5l0.9,0.5c0.1,0,0.1,0.1,0,0.2l-0.8,0.5c-0.1,0-0.2,0-0.3,0l-0.9-0.5c-0.1,0-0.1-0.1,0-0.2
						l0.9-0.5C289.3,103.5,289.4,103.5,289.5,103.5z"/>
					<path class="st19" d="M288.2,102.8l0.9,0.5c0.1,0,0.1,0.1,0,0.2l-0.9,0.5c-0.1,0-0.2,0-0.3,0l-0.9-0.5c-0.1,0-0.1-0.1,0-0.2
						l0.8-0.5C288,102.7,288.1,102.7,288.2,102.8z"/>
					<path class="st19" d="M287,102.1l0.9,0.5c0.1,0,0.1,0.1,0,0.2l-0.8,0.5c-0.1,0-0.2,0-0.3,0l-0.9-0.5c-0.1,0-0.1-0.1,0-0.2
						l0.9-0.5C286.8,102,286.9,102,287,102.1z"/>
					<path class="st19" d="M285.7,101.3l0.9,0.5c0.1,0,0.1,0.1,0,0.2l-0.9,0.5c-0.1,0.1-0.2,0.1-0.3,0l-0.9-0.5
						c-0.1,0-0.1-0.1,0-0.2l0.8-0.5C285.5,101.3,285.6,101.3,285.7,101.3z"/>
					<path class="st19" d="M284.5,100.6l0.9,0.5c0.1,0,0.1,0.1,0,0.2l-0.8,0.5c-0.1,0-0.2,0-0.3,0l-0.9-0.5c-0.1,0-0.1-0.1,0-0.2
						l0.9-0.5C284.3,100.6,284.4,100.6,284.5,100.6z"/>
					<path class="st19" d="M283.2,99.9l0.9,0.5c0.1,0,0.1,0.1,0,0.2l-0.9,0.5c-0.1,0.1-0.2,0.1-0.3,0l-0.9-0.5c-0.1,0-0.1-0.1,0-0.2
						l0.8-0.5C283,99.8,283.1,99.8,283.2,99.9z"/>
					<path class="st19" d="M282,99.2l0.9,0.5c0.1,0,0.1,0.1,0,0.2l-0.8,0.5c-0.1,0-0.2,0-0.3,0l-0.9-0.5c-0.1,0-0.1-0.1,0-0.2
						l0.9-0.5C281.8,99.1,281.9,99.1,282,99.2z"/>
					<path class="st19" d="M280.7,98.4l0.9,0.5c0.1,0,0.1,0.1,0,0.2l-0.9,0.5c-0.1,0-0.2,0-0.3,0l-0.9-0.5c-0.1,0-0.1-0.1,0-0.2
						l0.8-0.5C280.5,98.4,280.6,98.4,280.7,98.4z"/>
					<path class="st19" d="M295.8,107.1l1.5,0.9c0.1,0,0.1,0.1,0,0.2l-0.8,0.5c-0.1,0-0.2,0-0.3,0l-1.5-0.9c-0.1,0-0.1-0.1,0-0.2
						l0.8-0.5C295.6,107.1,295.7,107.1,295.8,107.1z"/>
					<path class="st19" d="M278.3,98.4l0.9,0.5c0.1,0.1,0.2,0.1,0.3,0l0.9-0.5c0.1,0,0.1-0.1,0-0.2h-0.1c0,0-0.1-0.1,0-0.1
						c0,0,0,0,0,0l1-0.6c0,0,0.1-0.1,0-0.1c0,0,0,0,0,0l-0.6-0.4c-0.1,0-0.2,0-0.3,0l-0.9,0.5l-0.2,0.1l-0.1,0.1l-0.1,0.1l-0.8,0.4
						C278.3,98.2,278.2,98.2,278.3,98.4C278.2,98.3,278.3,98.4,278.3,98.4z"/>
					<path class="st19" d="M300,105.4l0.9,0.5c0.1,0,0.1,0.1,0,0.2l-0.9,0.5c-0.1,0-0.2,0-0.3,0l-0.9-0.5c-0.1,0-0.1-0.1,0-0.2
						l0.8-0.5C299.8,105.3,299.9,105.3,300,105.4z"/>
					<path class="st19" d="M298.8,104.6l0.9,0.5c0.1,0,0.1,0.1,0,0.2l-0.8,0.5c-0.1,0-0.2,0-0.3,0l-0.9-0.5c-0.1,0-0.1-0.1,0-0.2
						l0.8-0.5C298.6,104.6,298.7,104.6,298.8,104.6z"/>
					<path class="st19" d="M297.5,103.9l0.9,0.5c0.1,0,0.1,0.1,0,0.2l-0.8,0.5c-0.1,0-0.2,0-0.3,0l-0.9-0.5c-0.1,0-0.1-0.1,0-0.2
						l0.8-0.5C297.3,103.9,297.4,103.9,297.5,103.9z"/>
					<path class="st19" d="M286.9,97.8l0.9,0.5c0.1,0,0.1,0.1,0,0.2l-0.8,0.5c-0.1,0-0.2,0-0.3,0l-0.9-0.5c-0.1,0-0.1-0.1,0-0.2
						l0.9-0.5C286.7,97.7,286.8,97.7,286.9,97.8z"/>
					<path class="st19" d="M285.6,97.1l0.9,0.5c0.1,0,0.1,0.1,0,0.2l-0.8,0.5c-0.1,0-0.2,0-0.3,0l-0.9-0.5c-0.1,0-0.1-0.1,0-0.2
						l0.9-0.5C285.4,97,285.5,97,285.6,97.1z"/>
					<path class="st19" d="M284.4,96.3l0.9,0.5c0.1,0,0.1,0.1,0,0.2l-0.8,0.5c-0.1,0-0.2,0-0.3,0l-0.9-0.5c-0.1,0-0.1-0.1,0-0.2
						l0.9-0.5C284.2,96.3,284.3,96.3,284.4,96.3z"/>
					<path class="st19" d="M283.1,95.6l0.9,0.5c0.1,0,0.1,0.1,0,0.2l-0.8,0.5c-0.1,0-0.2,0-0.3,0l-0.9-0.5c-0.1,0-0.1-0.1,0-0.2
						l0.9-0.5C282.9,95.6,283,95.6,283.1,95.6z"/>
					<path class="st19" d="M295.9,103l1.2,0.7c0.1,0,0.1,0.1,0,0.2l-0.8,0.5c-0.1,0-0.2,0-0.3,0l-1.2-0.7c-0.1-0.1-0.1-0.1,0-0.2
						l0.9-0.5C295.8,103,295.8,103,295.9,103z"/>
					<path class="st19" d="M288.1,98.5l1.2,0.7c0.1,0,0.1,0.1,0,0.2l-0.8,0.5c-0.1,0-0.2,0-0.3,0l-1.2-0.7c-0.1,0-0.1-0.1,0-0.2
						l0.8-0.5C287.9,98.5,288,98.5,288.1,98.5z"/>
					<path class="st19" d="M289.7,99.4l5.9,3.4c0.1,0,0.1,0.1,0,0.2l-0.8,0.5c-0.1,0-0.2,0-0.3,0l-5.9-3.4c-0.1,0-0.1-0.1,0-0.2
						l0.9-0.5C289.5,99.4,289.6,99.4,289.7,99.4z"/>
					<path class="st19" d="M295.4,105.5l0.9,0.5c0.1,0,0.1,0.1,0,0.2l-0.9,0.5c-0.1,0-0.2,0-0.3,0l-0.9-0.5c-0.1,0-0.1-0.1,0-0.2
						l0.8-0.5C295.2,105.5,295.3,105.5,295.4,105.5z"/>
					<path class="st19" d="M294.1,104.8l0.9,0.5c0.1,0,0.1,0.1,0,0.2l-0.8,0.5c-0.1,0-0.2,0-0.3,0l-0.9-0.5c-0.1,0-0.1-0.1,0-0.2
						l0.9-0.5C293.9,104.7,294,104.7,294.1,104.8z"/>
					<path class="st19" d="M292.9,104.1l0.9,0.5c0.1,0,0.1,0.1,0,0.2l-0.8,0.5c-0.1,0-0.2,0-0.3,0l-0.9-0.5c-0.1,0-0.1-0.1,0-0.2
						l0.9-0.5C292.7,104,292.8,104,292.9,104.1z"/>
					<path class="st19" d="M291.7,103.3l0.9,0.5c0.1,0,0.1,0.1,0,0.2l-0.8,0.5c-0.1,0.1-0.2,0.1-0.3,0l-0.9-0.5
						c-0.1,0-0.1-0.1,0-0.2l0.9-0.5C291.5,103.3,291.6,103.3,291.7,103.3z"/>
					<path class="st19" d="M290.4,102.6l0.9,0.5c0.1,0,0.1,0.1,0,0.2l-0.8,0.5c-0.1,0-0.2,0-0.3,0l-0.9-0.5c-0.1,0-0.1-0.1,0-0.2
						l0.8-0.5C290.2,102.6,290.3,102.6,290.4,102.6z"/>
					<path class="st19" d="M289.1,101.9l0.9,0.5c0.1,0,0.1,0.1,0,0.2l-0.9,0.5c-0.1,0-0.2,0-0.3,0l-0.9-0.5c-0.1,0-0.1-0.1,0-0.2
						l0.8-0.5C288.9,101.8,289,101.8,289.1,101.9z"/>
					<path class="st19" d="M287.9,101.2l0.9,0.5c0.1,0,0.1,0.1,0,0.2l-0.9,0.5c-0.1,0-0.2,0-0.3,0l-0.9-0.5c-0.1,0-0.1-0.1,0-0.2
						l0.8-0.5C287.7,101.1,287.8,101.1,287.9,101.2z"/>
					<path class="st19" d="M286.6,100.4l0.9,0.5c0.1,0,0.1,0.1,0,0.2l-0.9,0.5c-0.1,0.1-0.2,0.1-0.3,0l-0.9-0.5
						c-0.1,0-0.1-0.1,0-0.2l0.8-0.5C286.4,100.4,286.5,100.4,286.6,100.4z"/>
					<path class="st19" d="M285.4,99.7l0.9,0.5c0.1,0,0.1,0.1,0,0.2l-0.9,0.5c-0.1,0-0.2,0-0.3,0l-0.9-0.5c-0.1,0-0.1-0.1,0-0.2
						l0.9-0.5C285.2,99.7,285.3,99.7,285.4,99.7z"/>
					<path class="st19" d="M284.1,99l0.9,0.5c0.1,0,0.1,0.1,0,0.2l-0.8,0.5c-0.1,0-0.2,0-0.3,0l-0.9-0.5c-0.1,0-0.1-0.1,0-0.2
						l0.9-0.5C283.9,98.9,284,98.9,284.1,99z"/>
					<path class="st19" d="M282.9,98.3l0.9,0.5c0.1,0,0.1,0.1,0,0.2l-0.8,0.5c-0.1,0-0.2,0-0.3,0l-0.9-0.5c-0.1,0-0.1-0.1,0-0.2
						l0.9-0.5C282.7,98.2,282.8,98.2,282.9,98.3z"/>
					<path class="st19" d="M281.6,97.6l0.9,0.5c0.1,0,0.1,0.1,0,0.2l-0.8,0.5c-0.1,0-0.2,0-0.3,0l-0.9-0.5c-0.1,0-0.1-0.1,0-0.2
						l0.8-0.5C281.4,97.5,281.5,97.5,281.6,97.6z"/>
					<path class="st19" d="M296.7,106.2l1.8,1.1c0.1,0,0.1,0.1,0,0.2l-0.8,0.5c-0.1,0-0.2,0-0.3,0l-1.8-1.1c-0.1,0-0.1-0.1,0-0.2
						l0.8-0.5C296.5,106.2,296.6,106.2,296.7,106.2z"/>
					<path class="st19" d="M297.2,105.2l0.9,0.5c0.1,0,0.1,0.1,0,0.2l-0.8,0.5c-0.1,0-0.2,0-0.3,0l-0.9-0.5c-0.1,0-0.1-0.1,0-0.2
						l0.9-0.5C297,105.1,297.1,105.1,297.2,105.2z"/>
					<path class="st19" d="M296,104.4l0.9,0.5c0.1,0,0.1,0.1,0,0.2l-0.8,0.5c-0.1,0-0.2,0-0.3,0l-0.9-0.5c-0.1,0-0.1-0.1,0-0.2
						l0.8-0.5C295.8,104.4,295.9,104.4,296,104.4z"/>
					<path class="st19" d="M294.7,103.7l0.9,0.5c0.1,0,0.1,0.1,0,0.2l-0.9,0.5c-0.1,0.1-0.2,0.1-0.3,0l-0.9-0.5
						c-0.1,0-0.1-0.1,0-0.2l0.8-0.5C294.5,103.7,294.6,103.7,294.7,103.7z"/>
					<path class="st19" d="M293.5,103l0.9,0.5c0.1,0,0.1,0.1,0,0.2l-0.9,0.5c-0.1,0-0.2,0-0.3,0l-0.9-0.5c-0.1,0-0.1-0.1,0-0.2
						l0.8-0.5C293.3,103,293.4,103,293.5,103z"/>
					<path class="st19" d="M292.2,102.3l0.9,0.5c0.1,0,0.1,0.1,0,0.2l-0.9,0.5c-0.1,0-0.2,0-0.3,0l-0.9-0.5c-0.1,0-0.1-0.1,0-0.2
						l0.8-0.5C292,102.2,292.1,102.2,292.2,102.3z"/>
					<path class="st19" d="M291,101.5l0.9,0.5c0.1,0,0.1,0.1,0,0.2l-0.9,0.5c-0.1,0-0.2,0-0.3,0l-0.9-0.5c-0.1,0-0.1-0.1,0-0.2
						l0.9-0.5C290.8,101.5,290.9,101.5,291,101.5z"/>
					<path class="st19" d="M289.7,100.8l0.9,0.5c0.1,0,0.1,0.1,0,0.2l-0.8,0.5c-0.1,0-0.2,0-0.3,0l-0.9-0.5c-0.1,0-0.1-0.1,0-0.2
						l0.9-0.5C289.5,100.8,289.6,100.8,289.7,100.8z"/>
					<path class="st19" d="M288.5,100.1l0.9,0.5c0.1,0,0.1,0.1,0,0.2l-0.8,0.5c-0.1,0-0.2,0-0.3,0l-0.9-0.5c-0.1,0-0.1-0.1,0-0.2
						l0.9-0.5C288.3,100.1,288.4,100.1,288.5,100.1z"/>
					<path class="st19" d="M287.2,99.4l0.9,0.5c0.1,0,0.1,0.1,0,0.2l-0.8,0.5c-0.1,0-0.2,0-0.3,0l-0.9-0.5c-0.1,0-0.1-0.1,0-0.2
						l0.9-0.5C287,99.3,287.1,99.3,287.2,99.4z"/>
					<path class="st19" d="M286,98.7l0.9,0.5c0.1,0,0.1,0.1,0,0.2l-0.8,0.5c-0.1,0-0.2,0-0.3,0l-0.9-0.5c-0.1,0-0.1-0.1,0-0.2
						l0.8-0.5C285.8,98.6,285.9,98.6,286,98.7z"/>
					<path class="st19" d="M284.7,97.9l0.9,0.5c0.1,0,0.1,0.1,0,0.2l-0.8,0.5c-0.1,0-0.2,0-0.3,0l-0.9-0.5c-0.1,0-0.1-0.1,0-0.2
						l0.8-0.5C284.5,97.9,284.6,97.9,284.7,97.9z"/>
					<path class="st19" d="M281.9,96.3l2.4,1.4c0.1,0,0.1,0.1,0,0.2l-0.9,0.5c-0.1,0.1-0.2,0.1-0.3,0l-2.5-1.4c-0.1,0-0.1-0.1,0-0.2
						l0.8-0.5C281.7,96.3,281.8,96.3,281.9,96.3z"/>
					<path class="st19" d="M298.5,105.9l1.2,0.7c0.1,0,0.1,0.1,0,0.2l-0.8,0.5c-0.1,0-0.2,0-0.3,0l-1.2-0.7c-0.1,0-0.1-0.1,0-0.2
						l0.9-0.5C298.3,105.8,298.4,105.8,298.5,105.9z"/>
					<path class="st19" d="M277,99.2l17.8,10.3c0.1,0,0.1,0.1,0,0.2l-0.4,0.2c-0.1,0-0.2,0-0.3,0l-17.8-10.3c-0.1,0-0.1-0.1,0-0.2
						l0.4-0.2C276.8,99.1,276.9,99.1,277,99.2z"/>
					<polygon id="_Контур_45" class="st20" points="297.8,99.6 297.7,99.7 294.6,101.4 289.1,98.3 289,98.2 292.2,96.4 					
						"/>
					<polygon id="_Контур_46" class="st21" points="297.7,99.7 294.6,101.4 289.1,98.3 292.2,96.5 					"/>
					<path id="_Контур_47" class="st21" d="M306.5,103.7v0.3c0,0.4-0.2,0.8-0.5,1l-10.8,6.3c-0.2,0.1-0.4,0.2-0.6,0.2
						c-0.2,0-0.4-0.1-0.6-0.2l-19.6-11.3c-0.4-0.2-0.6-0.6-0.6-1v-0.3l20.7,12L306.5,103.7z"/>
					<path id="_Контур_48" class="st15" d="M294.3,110.8c-0.4,0.1-0.8,0.1-1.1-0.1l-19.5-11.3c-0.3-0.2-0.6-0.5-0.6-0.9
						l-2.1-12.7c0-0.1,0-0.1,0-0.2c0-0.4,0.1-0.7,0.4-0.9l20.3,11.7c0.3,0.1,0.4,0.4,0.5,0.7L294.3,110.8z"/>
					<path id="_Контур_49" class="st21" d="M294.6,110.6l-0.1,0.1c-0.1,0-0.1,0.1-0.2,0.1L292,97c-0.1-0.3-0.2-0.5-0.5-0.7
						l-20.3-11.7c0.1-0.1,0.2-0.1,0.3-0.2l20.3,11.7c0.2,0.1,0.4,0.4,0.5,0.7L294.6,110.6z"/>
				</g>
			</g>
			<path id="_Контур_50" class="st14" d="M309.3,56.2c0,0-0.3,4.8-0.1,5.3s2.2,1.8,2.8,2.3c0.6,0.5-3.4,4.4-5.3,5.3
				s-8-1.4-8.1-4.4s1-5.5,2-5.7S309.3,56.2,309.3,56.2z"/>
			<path id="_Контур_51" class="st15" d="M309.9,62.3c0,0-3.5,5.2-8.4,5.7c-1.5-1.5-1.7-7,0.5-8.7c0,0-2-1.6-3.3-1.3
				c-1.4,0.9-2.5,2.3-3,3.9c-1.3,3.6-1.8,7.4-1.7,11.2c0.1,5.1,0,18.1,0,18.1c0.6,3.1,2.5,5.8,5.2,7.4c3.5,2,7.7,2.6,11.7,1.6
				c2.5-0.6,3.4-2,4.3-3.8c-0.2-3.6-1.6-11-1-15.6s1.6-7.9,1.8-11.6s-0.5-3.6-2.3-4.9C312.3,63.7,311.1,62.9,309.9,62.3z"/>
			<path id="_Контур_52" class="st14" d="M304.2,104c0.9-0.6,1.8-1.1,2.8-1.6c0.9-0.3,1.7-0.8,2.4-1.4c0.9-0.8,2.3-4,3.3-7.2
				c1-3.5,1.4-7.2,1.2-10.8c-0.4-4.4-2-10.5-2.4-13s0.4-3.5,1.6-4.4c1.4-1.1,3.3-0.6,4.3,2.9c1.3,4.9,2.1,9.9,2.3,14.9
				c0,3.7-0.5,7.5-1.7,11c-1,3-2.5,5.9-4.2,8.7c-0.5,0.8-0.6,1.5-1.4,3.2c-0.7,1.7-1.8,3.1-3.2,4.3c-1.2,0.9-1.8,1-2.1,0.8
				s-0.3-0.6,0.2-1.1c0.9-0.7,1.6-1.5,2.2-2.5c0,0-1.1,1.1-1.8,1.7c-0.6,0.5-1.3,1-2.1,1.3c-0.7,0.3-1.7-0.3-1.2-0.8s1-0.7,2.1-1.6
				c0.5-0.5,1-1,1.5-1.6c-0.7,0.6-1.5,1-2.3,1.5c-0.6,0.4-1.3,0.6-2.1,0.6c-0.4,0-0.8-0.5-0.1-1.1c1-0.5,1.9-1.1,2.7-1.9
				c0.8-0.8,1.2-1.4,1-1.5s-0.6,0.5-1.6,0.8s-1.9,0-2-0.5S303.4,104.4,304.2,104z"/>
			<path id="_Контур_53" class="st14" d="M298.4,48.9L298.4,48.9c0.6-3.8,3.3-6.6,7.2-6.4c4.1,0.2,7.3,3.7,7.1,7.8
				c-0.1,2.3-1.3,4.5-3.3,5.8c-0.1,0.6-0.3,1.1-0.6,1.7c-1.4,1.6-5.5,2.6-6.7,2.4c-1.5-0.1-2.7-1.1-3.1-2.5
				C297.7,54.8,298,50.8,298.4,48.9z"/>
			<path class="st19" d="M309.3,56.2L309.3,56.2l-0.4-3.3c0,0,2.7-6.9-3.6-5.6c-4.2,0.9-5.2,1.3-6.5-1.5s3.2-5.3,8.5-4.6
				c3.8,0.4,6.7,3.6,6.6,7.5C313.8,50.6,313.3,54.8,309.3,56.2z"/>
			<path class="st18" d="M320.2,75c0,0-3.5,3.4-7.5,2.4c-0.6-0.4-2-8.4-2-8.4s0-4.4,3.4-4.3S320.2,75,320.2,75z"/>
			<path class="st18" d="M294.1,68.3c-1,0-1.9-0.5-2.5-1.2c0.1-1.8,2.4-8.6,7.1-9.1c-1.3,0.9-2.3,2.1-2.9,3.5
				C295,63.8,294.4,66,294.1,68.3z"/>
		</g>
	</g>
</g>
</svg>
