<svg width="67" height="69" viewBox="0 0 67 69" fill="none" xmlns="http://www.w3.org/2000/svg">
<ellipse cx="4.1875" cy="18.2581" rx="4.1875" ry="4.06451" fill="#FB7370"/>
<ellipse cx="48.1563" cy="40.6129" rx="4.1875" ry="4.06451" fill="#FB7370"/>
<ellipse cx="18.8437" cy="26.3871" rx="4.1875" ry="4.06451" fill="#FB7370"/>
<ellipse cx="33.4043" cy="34.0894" rx="4.1875" ry="4.06451" fill="#FB7370"/>
<ellipse cx="33.5" cy="18.2581" rx="4.1875" ry="4.06451" fill="#FB7370"/>
<ellipse cx="62.8125" cy="48.7419" rx="4.1875" ry="4.06451" fill="#FB7370"/>
<ellipse cx="62.6559" cy="18.7101" rx="4.1875" ry="4.06451" fill="#FB7370"/>
<path d="M33.5 18.258C33.5 5.25161 33.5 2 33.5 2" stroke="#FB7370" stroke-width="3" stroke-linecap="round" stroke-linejoin="round"/>
<path d="M4.18748 18.258C27.6375 5.25161 33.5 2 33.5 2" stroke="#FB7370" stroke-width="3" stroke-linecap="round" stroke-linejoin="round"/>
<path d="M18.8437 26.387C30.5687 19.8838 33.5 18.258 33.5 18.258" stroke="#FB7370" stroke-width="3" stroke-linecap="round" stroke-linejoin="round"/>
<path d="M18.8437 40.6129C30.5687 47.1161 33.5 48.7419 33.5 48.7419" stroke="#FB7370" stroke-width="3" stroke-linecap="round" stroke-linejoin="round"/>
<path d="M33.5 18.2581C45.2251 24.7613 48.1563 26.3871 48.1563 26.3871" stroke="#FB7370" stroke-width="3" stroke-linecap="round" stroke-linejoin="round"/>
<path d="M48.1563 26.3872C48.1563 37.7678 48.1563 40.6129 48.1563 40.6129" stroke="#FB7370" stroke-width="3" stroke-linecap="round" stroke-linejoin="round"/>
<path d="M18.8437 26.3872C18.8437 37.7678 18.8438 40.6129 18.8438 40.6129" stroke="#FB7370" stroke-width="3" stroke-linecap="round" stroke-linejoin="round"/>
<path d="M4.18748 18.2581C27.6375 31.2645 33.5 34.5161 33.5 34.5161" stroke="#FB7370" stroke-width="3" stroke-linecap="round" stroke-linejoin="round"/>
<path d="M4.18748 48.7419C27.6375 37.3613 33.5 34.5161 33.5 34.5161" stroke="#FB7370" stroke-width="3" stroke-linecap="round" stroke-linejoin="round"/>
<path d="M33.5 34.5161C56.95 21.5096 62.8125 18.258 62.8125 18.258" stroke="#FB7370" stroke-width="3" stroke-linecap="round" stroke-linejoin="round"/>
<path d="M33.5 34.5162C56.95 45.8968 62.8125 48.7419 62.8125 48.7419" stroke="#FB7370" stroke-width="3" stroke-linecap="round" stroke-linejoin="round"/>
<path d="M33.5 48.742C45.2251 42.2387 48.1563 40.6129 48.1563 40.6129" stroke="#FB7370" stroke-width="3" stroke-linecap="round" stroke-linejoin="round"/>
<path d="M33.5 65C56.95 51.9936 62.8125 48.7419 62.8125 48.7419" stroke="#FB7370" stroke-width="3" stroke-linecap="round" stroke-linejoin="round"/>
<path d="M33.5 1.99999C56.95 15.0064 62.8125 18.258 62.8125 18.258" stroke="#FB7370" stroke-width="3" stroke-linecap="round" stroke-linejoin="round"/>
<path d="M4.18748 48.7419C27.6375 61.7483 33.5 64.9999 33.5 64.9999" stroke="#FB7370" stroke-width="3" stroke-linecap="round" stroke-linejoin="round"/>
<path d="M4.1875 48.7418C4.1875 24.3548 4.1875 18.258 4.1875 18.258" stroke="#FB7370" stroke-width="3" stroke-linecap="round" stroke-linejoin="round"/>
<path d="M62.8125 48.7418C62.8125 24.3548 62.8125 18.258 62.8125 18.258" stroke="#FB7370" stroke-width="3" stroke-linecap="round" stroke-linejoin="round"/>
<path d="M33.5 65C33.5 51.9936 33.5 48.7419 33.5 48.7419" stroke="#FB7370" stroke-width="3" stroke-linecap="round" stroke-linejoin="round"/>
<path d="M33.5 48.7418C33.5 24.3548 33.5 18.258 33.5 18.258" stroke="#FB7370" stroke-width="3" stroke-linecap="round" stroke-linejoin="round"/>
</svg>
