<svg fill="none" height="52" viewBox="0 0 250 52" width="250" xmlns="http://www.w3.org/2000/svg"><g fill="#4d4796"><path d="m80.0844 25.3854v9.4931c-.5482.5519-1.1705 1.0248-1.849 1.4051-.6617.3699-1.3624.6651-2.0893.8801-.7411.2174-1.5009.3651-2.2695.4414-.7905.0807-1.5846.1208-2.3792.1201-1.5465.0122-3.079-.2936-4.5024-.8984-1.3731-.5853-2.624-1.4234-3.6876-2.4706-1.0573-1.0521-1.9023-2.2978-2.4888-3.6693-.6107-1.4238-.9201-2.9585-.9089-4.5076-.0117-2.0503.5296-4.0658 1.567-5.8343.508-.8573 1.1223-1.647 1.8281-2.3505 1.4208-1.4146 3.1846-2.436 5.1188-2.9642 1.002-.276 2.0371-.414 3.0764-.41.8353-.0013 1.6678.0943 2.4811.2847.8108.1885 1.5989.4643 2.3504.8226.7559.3667 1.4756.8039 2.1494 1.3058.6887.5099 1.3295 1.0816 1.9143 1.708l-.9507.9637c-.2692.295-.599.5283-.9669.6838-.3678.1555-.765.2296-1.1641.2172-.5775.0048-1.1419-.1715-1.614-.504-.6018-.4137-1.2596-.739-1.9535-.9663-.7219-.234-1.4766-.3513-2.2355-.3474-.9876-.0036-1.9653.1955-2.8728.585-1.7863.7462-3.2164 2.152-3.9931 3.9253-.396.9057-.598 1.8843-.5929 2.8727-.0077 1.0055.2025 2.0008.6164 2.9172.6098 1.3419 1.5932 2.4798 2.8325 3.2778s2.6821 1.2222 4.1561 1.222c.5027-.0119 1.0042-.0547 1.5017-.128.4697-.0705.9345-.1699 1.392-.2977.4781-.132.9359-.3288 1.3606-.585v-3.1835l-1.3058-.0235c-.392.0016-.7796-.0822-1.136-.2455-.3479-.17-.6292-.4513-.7992-.7992-.231-.5237-.3339-1.0948-.3003-1.6662v-1.2666z"/><path d="m91.0402 37.5136h-4.142v-22.6557h8.506c1.0273-.0155 2.0455.1949 2.9825.6164.8612.3902 1.6373.9466 2.2823 1.6374.63.6729 1.129 1.4577 1.471 2.3139.597 1.4673.689 3.092.261 4.6173-.176.6295-.44 1.2309-.784 1.7864-.734 1.1741-1.7801 2.1208-3.0214 2.7343 1.1073 1.5095 2.2084 3.0043 3.3034 4.4842s2.203 2.9685 3.322 4.4658h-3.254c-.267-.0063-.531-.0548-.783-.1436-.327-.1076-.638-.2587-.925-.4492-.3558-.23-.6897-.4922-.9975-.7835-.3741-.3664-.7101-.7698-1.0028-1.204l-4.1264-5.5653h-3.0921zm4.492-12.3163c.3958-.0024.7862-.0915 1.1438-.2612.3587-.1625.6817-.3941.9507-.6816.2716-.2874.4884-.6219.6398-.9872.1565-.3666.2373-.761.2377-1.1596.0004-.4054-.0804-.8067-.2377-1.1804-.1527-.3646-.3694-.6989-.6398-.9872-.2698-.286-.5927-.5166-.9507-.679-.3571-.1709-.7479-.2601-1.1438-.2612h-4.492v6.1817z"/><path d="m116.148 14.858h3.747l9.898 22.6557h-2.578c-.569.005-1.129-.1537-1.611-.4571-.483-.3029-.863-.7443-1.092-1.2666l-1.345-3.066h-10.292l-1.327 3.066c-.108.2552-.258.4908-.444.6973-.189.2101-.407.3929-.647.5432-.243.155-.507.2746-.784.3552-.274.0849-.559.1281-.846.128h-2.577zm-1.439 13.7057h6.625l-2.956-6.8607c-.126-.278-.219-.5699-.277-.8697-.047-.2611-.078-.4648-.089-.6006-.019.2045-.051.4077-.094.6085-.058.2951-.146.5838-.261.8618z"/><path d="m141.687 37.5136h-4.163v-9.5977c.005-.3142-.07-.6245-.219-.901-.179-.3108-.374-.6116-.585-.901l-8.318-11.256h3.178c.638-.0137 1.269.127 1.841.41.535.2754.99.6837 1.322 1.1857l4.473 6.0563c.131.1755.229.3739.288.585.052.1985.08.3265.091.3787.02-.1258.049-.2498.089-.3709.063-.2158.167-.4172.308-.5928l4.458-6.0406c.324-.5141.781-.9317 1.321-1.2092.574-.2779 1.205-.4158 1.842-.4022h3.214l-8.338 11.2717c-.126.1697-.238.3238-.329.4675-.095.1345-.182.274-.262.4178-.072.1355-.127.2793-.164.4283-.039.1545-.057.3134-.055.4727z"/><path d="m173.619 26.6362v8.7254c-.509.473-1.083.8705-1.705 1.1804-.637.3162-1.305.5656-1.993.7443-.721.1852-1.457.3119-2.199.3787-.757.0679-1.528.1019-2.306.1019-1.549.011-3.084-.2993-4.507-.9115-1.374-.5855-2.624-1.4275-3.683-2.481-1.055-1.0542-1.897-2.3018-2.481-3.6745-.6-1.4294-.909-2.964-.909-4.5142 0-1.5501.309-3.0847.909-4.5141.586-1.3773 1.432-2.6285 2.492-3.685 1.059-1.0527 2.309-1.8947 3.682-2.481 2.852-1.1953 6.062-1.2123 8.926-.047 1.349.5636 2.58 1.376 3.628 2.3948l-.157.1436c-.184.1874-.401.3396-.64.4492-.242.1024-.504.1531-.767.1489-.363.0025-.717-.108-1.014-.316-.783-.538-1.64-.961-2.543-1.2562-.945-.3041-1.933-.4558-2.925-.4492-.863-.0034-1.722.1108-2.554.3395-.804.219-1.575.5458-2.291.9715-.709.4186-1.363.923-1.948 1.5017-.584.5801-1.089 1.2342-1.502 1.9457-.419.7229-.746 1.496-.971 2.3008-.234.8302-.351 1.689-.348 2.5515-.003.8639.117 1.724.356 2.5542.466 1.6113 1.344 3.0737 2.546 4.2438.596.5815 1.262 1.0868 1.982 1.5043.733.424 1.518.7506 2.335.9715.836.2282 1.7.3424 2.567.3395 1.074.0036 2.144-.1423 3.178-.4335 1.028-.2935 2.008-.7332 2.91-1.3058v-5.4478h-2.009c-.258.0045-.514-.0444-.752-.1437-.238-.0994-.453-.247-.632-.4335-.164-.1769-.292-.3834-.378-.6085-.089-.2326-.134-.4796-.134-.7286v-.0627z"/><path d="m182.413 37.5136h-1.977v-22.6557h7.936c.853-.0069 1.699.162 2.484.4962.751.3215 1.435.7833 2.013 1.3606.579.5782 1.042 1.2628 1.361 2.0162.334.7787.504 1.618.499 2.4654.001.7713-.133 1.5368-.397 2.2616-.253.709-.621 1.3716-1.089 1.9613-.464.5782-1.033 1.0637-1.677 1.4312-.656.3746-1.382.6085-2.133.6868l7.492 9.9764h-.932c-1.084 0-1.888-.4022-2.403-1.1987l-6.594-8.7777h-4.583zm0-20.6813v8.728h5.959c.584.0037 1.163-.1118 1.7-.3396.52-.2194.993-.5368 1.392-.9349.399-.3997.718-.8711.941-1.3894.233-.5363.351-1.1154.347-1.7001.004-.5814-.114-1.1572-.347-1.6897-.452-1.0452-1.286-1.8778-2.333-2.327-.536-.2327-1.115-.351-1.7-.3473z"/><path d="m204.167 37.5137h-1.977v-22.6557h1.977z"/><path d="m211.803 37.5136v-22.6557h8.334c2.008-.0079 3.982.5272 5.711 1.5487 1.68.9915 3.082 2.3922 4.074 4.0715 1.019 1.7323 1.557 3.7056 1.557 5.7155s-.538 3.9832-1.557 5.7155c-.494.8356-1.092 1.6059-1.778 2.293-1.385 1.3859-3.107 2.3876-4.996 2.9067-.981.2729-1.994.4091-3.011.4048zm8.334-1.977c1.256.0102 2.501-.2397 3.656-.7338 1.108-.4736 2.116-1.1524 2.972-2.0005.855-.8515 1.537-1.8608 2.008-2.972.485-1.1513.734-2.3877.734-3.6367s-.249-2.4854-.734-3.6367c-.472-1.1128-1.154-2.1245-2.008-2.9798-.855-.8514-1.863-1.5329-2.972-2.0083-1.155-.4951-2.4-.7458-3.656-.7365h-6.357v18.7043z"/><path d="m245.845 17.8273c-.242-.1671-.457-.3264-.639-.4727-.382-.3068-.829-.5229-1.306-.632-.344-.0702-.694-.1017-1.045-.094-.594-.0033-1.183.1011-1.739.3082-.526.1936-1.015.4743-1.447.8305-.407.3361-.742.7498-.987 1.217-.24.4528-.365.9578-.363 1.4703-.016.4951.062.9887.23 1.4547.168.3974.438.7434.783 1.0028.44.3346.924.6062 1.439.807.596.2472 1.331.5241 2.207.8305.465.1741.9.3325 1.306.4753.399.1463.783.2977 1.138.4492.343.145.678.308 1.003.4884.312.1759.61.374.893.5928.713.5312 1.257 1.2567 1.567 2.0893.308.8685.46 1.7844.45 2.7056.014.9239-.186 1.8384-.585 2.6717-.379.7763-.917 1.4634-1.581 2.0162-.689.5678-1.481.9994-2.332 1.2718-.924.3014-1.892.4504-2.865.4414-1.97 0-3.631-.585-4.98-1.755-.339-.3088-.654-.6442-.94-1.0029-.229-.2892-.437-.5938-.624-.9114l.235-.1411c.3-.1854.644-.289.997-.3003.246-.0011.491.0332.726.1019.235.0703.448.1987.619.3734.363.3451.757.6547 1.178.9245.313.1957.647.3551.995.4753.292.0956.595.1561.901.1802.289.0209.587.0366.893.047.642.0204 1.283-.0517 1.904-.2141.619-.1512 1.203-.417 1.724-.7835.514-.3637.941-.8363 1.251-1.3841.336-.6139.503-1.3062.483-2.0058.03-.7158-.099-1.4294-.379-2.0892-.238-.5033-.597-.94-1.044-1.2719-.488-.3476-1.024-.6221-1.591-.8148-.611-.2176-1.27-.4631-1.977-.7365-.896-.3578-1.713-.6921-2.449-.995-.677-.2713-1.313-.6361-1.889-1.0838-.52-.4124-.937-.9399-1.219-1.5409-.316-.7492-.464-1.5587-.434-2.3713-.011-.8374.191-1.664.585-2.4027.38-.706.893-1.332 1.51-1.8438.622-.513 1.329-.9142 2.089-1.1856.748-.2727 1.537-.414 2.332-.4179.614-.0078 1.226.0803 1.813.2612.518.1625 1.016.3851 1.483.6633.437.2596.846.5642 1.22.9088.362.3378.696.6704 1.002.9977l-.49.3473c-.133.0971-.279.1745-.434.2298-.192.0619-.394.091-.595.0862-.36.0128-.715-.0808-1.022-.269z"/><path d="m48.4759 28.9744c1.6095-12.5815-7.2851-24.08554-19.8666-25.69504-12.5815-1.60949-24.08556 7.28504-25.69505 19.86654-1.6095 12.5815 7.28505 24.0856 19.86655 25.6951s24.0856-7.2851 25.6951-19.8666z"/></g><path d="m26.7423 26.1844v2.2016h4.8211v3.6824h-4.7871v-.0131c-.128 0-.2612.0131-.3891.0131-.7112.0019-1.4156-.1393-2.071-.4153-.9527-.4029-1.7688-1.0721-2.3505-1.9273-.7144-1.0586-1.0239-2.3389-.872-3.6069s.755-2.439 1.6992-3.2988c.9442-.8599 2.1663-1.3513 3.443-1.3842 1.2766-.033 2.5225.3946 3.5098 1.2046h9.4018c-.1202-.3761-.2612-.7469-.4101-1.1073-.9429-2.2339-2.474-4.1703-4.43-5.6032-1.9561-1.4329-4.2641-2.3086-6.6784-2.534-2.4142-.2254-4.8444.208-7.0319 1.2541-2.1875 1.046-4.0505 2.6656-5.3907 4.6864-1.3401 2.0207-2.1074 4.367-2.22 6.7891-.1126 2.4222.4336 4.8295 1.5804 6.9659 1.1469 2.1364 2.8515 3.9219 4.9325 5.1664 2.081 1.2446 4.4605 1.9016 6.8852 1.9012h13.3192v-13.9799zm4.8211 11.7523h-4.4398c-.1671 0-.3395.0183-.5223.0209h-.3865c-1.9249-.027-3.8104-.5493-5.4747-1.5168-1.6644-.9674-3.0514-2.3472-4.0275-4.0065s-1.5083-3.542-1.5453-5.4667c-.0369-1.9247.4225-3.8265 1.3341-5.5221.9116-1.6955 2.2446-3.1276 3.8706-4.1583 1.6259-1.0306 3.4899-1.6251 5.4124-1.726 1.9224-.1008 3.8384.2952 5.5633 1.15s3.2005 2.1395 4.2845 3.7303h-5.1657c-.9825-.6339-2.0992-1.03-3.2615-1.1569s-2.3382.0189-3.4343.4259-2.0822 1.0639-2.8801 1.9185c-.7978.8547-1.3854 1.8836-1.7162 3.0051-.3307 1.1214-.3954 2.3046-.189 3.4554s.6783 2.2377 1.3782 3.1743 1.6084 1.6972 2.6536 2.2213 2.1981.7973 3.3673.7979h5.1789zm5.9596.0209h-3.7554l.0208-.0131h-.0208v-3.6562h3.7554zm0-5.884h-3.7554v-3.6824h3.7554z" fill="#262626"/><path d="m26.0922 25.4897v2.2016h4.8236v3.6824h-4.7923v-.0131c-.1279 0-.2611.0131-.3865.0131-.8719.0015-1.7307-.2122-2.5002-.6222s-1.4258-1.0037-1.9108-1.7283c-.4927-.7343-.7955-1.5794-.8812-2.4596s.0484-1.7678.3902-2.5834c.4024-.9537 1.0728-1.7702 1.93-2.3504.7332-.4943 1.578-.7981 2.458-.8838.8801-.0857 1.7676.0493 2.5824.3928.4704.1976.9101.4614 1.3058.7835h9.4018c-.1227-.3761-.2612-.747-.41-1.1074-.9464-2.2299-2.4791-4.1619-4.4353-5.5907-1.9563-1.4288-4.263-2.301-6.6752-2.524s-4.8398.2116-7.0248 1.2575c-2.185 1.046-4.0459 2.6642-5.385 4.6829-1.3392 2.0187-2.1065 4.3625-2.2204 6.7823-.114 2.4198.4296 4.8252 1.573 6.9609 1.1434 2.1356 2.844 3.9216 4.921 5.1683 2.0771 1.2468 4.453 1.9076 6.8755 1.9123h13.3192v-13.9877zm4.8236 11.7522h-4.4397c-.1698 0-.3395.0183-.5223.0209h-.3787c-1.9256-.0242-3.8125-.5443-5.4786-1.51s-3.0552-2.3444-4.0334-4.0033c-.9782-1.6588-1.5124-3.5417-1.5511-5.4671-.0387-1.9253.4195-3.8282 1.3302-5.5249.9108-1.6968 2.2434-3.1303 3.8694-4.1621 1.626-1.0319 3.4904-1.6273 5.4135-1.7289s3.8399.2942 5.5655 1.149 3.2019 2.1399 4.2863 3.7313h-5.1606c-.9818-.6388-2.0992-1.0395-3.2632-1.1701-1.1641-.1306-2.3425.0125-3.4415.4178-1.0989.4053-2.088 1.0617-2.8885 1.9169-.8004.8552-1.3901 1.8855-1.7219 3.0088-.3319 1.1234-.3968 2.3087-.1896 3.4616.2072 1.1528.6808 2.2413 1.3831 3.1788.7022.9375 1.6137 1.698 2.6619 2.2209 1.0481.5229 2.2039.7938 3.3752.7911h5.1788zm5.9597.0209h-3.7555l.0183-.013h-.0183v-3.6772h3.7555zm0-5.8839h-3.7555v-3.6824h3.7555z" fill="#fff"/><g fill="#999"><path d="m30.9165 33.5752h2.2042v1.0472h-2.2042z"/><path d="m29.1323 27.6913h1.7838v1.0473h2.2015v-1.0473h1.6166v-.0026h-5.6019z"/></g></svg>