<svg fill="none" height="41" viewBox="0 0 249 41" width="249" xmlns="http://www.w3.org/2000/svg"><g fill="#4d4796"><path d="m56.0815 37.3592c.3936.1968.7871.3936 1.5742.5904 2.9517 1.3774 5.7066 2.1645 9.0518 2.1645 10.8227 0 19.8745-9.0517 19.8745-19.8745 0-10.82273-9.0518-19.874488-19.6777-19.874488-7.084 0-13.5777 6.887208-17.9068 11.216288l-5.3129 5.313-9.0518-9.05175c-3.542-3.54199-7.4775-7.477538-14.3647-7.477538-11.21635.196778-20.2681 9.248528-20.2681 20.071288 0 10.8227 9.05175 19.8745 19.6777 19.8745 2.9517 0 6.2969-.5903 9.0518-2.1646 2.5581-1.5742 9.4453-5.7065 13.3808-9.642l.9839-.9839 4.9195 4.7226c3.3452 2.9517 5.9033 4.1324 8.0678 5.1162zm-3.1484-19.2841c.7871-.7871 1.5742-1.5742 2.1645-2.1646 3.1485-3.1484 8.0679-7.87107 11.6099-7.87107 6.6904 0 12.5937 6.29687 12.5937 12.98727 0 6.6905-5.7065 12.5938-12.5937 12.5938-2.1646 0-5.7065-1.1807-7.8711-2.3614-5.7065-3.3452-10.4292-8.8549-10.4292-8.8549zm-15.7422 5.1162c-3.1484 3.1484-9.2485 7.084-11.4131 8.2646-1.9678.9839-3.542 1.5742-5.7065 1.5742-6.6904 0-12.59376-5.7065-12.59376-12.5937 0-6.6904 5.70656-12.59375 12.59376-12.59375 3.9355 0 5.7065 1.77099 9.0517 5.31295l9.2486 9.0518z"/><path d="m93.272 32.8333c-.3936-.3936-.5904-1.1807-.5904-1.9678v-20.2681c0-.78706.1968-1.57417.7871-1.96773.5904-.59033 1.1807-.78711 1.9678-.78711s1.5742.19678 1.9678.78711c.5903.59033.7871 1.18067.7871 1.96773v18.3003h9.2486c1.771 0 2.558.7871 2.558 2.3614 0 1.5742-.787 2.3613-2.558 2.3613h-12.2003c-.9838-.1968-1.5742-.3936-1.9677-.7871z"/><path d="m112.949 11.7781c-.393-.3936-.59-.7871-.787-1.3774-.197-.78714 0-1.57425.591-2.16459.393-.59033.983-.78711 1.77-.98388.591-.19678 1.378-.19678 1.968 0 1.378.39355 2.165 2.16455 1.771 3.34517-.787 2.1646-3.739 2.5581-5.313 1.1807zm.197 21.252c-.59-.3936-.787-1.1807-.787-1.9678v-13.1841c0-.7871.197-1.5742.787-1.9678.59-.3935 1.181-.5903 1.968-.5903s1.377.1968 1.968.5903c.59.3936.787.9839.787 1.9678v13.1841c0 .7871-.197 1.5742-.787 1.9678-.984.5903-2.165.7871-3.149.3935-.393 0-.59-.1968-.787-.3935z"/><path d="m137.941 17.2879c.984 1.1807 1.574 3.1485 1.574 5.7066v8.2646c0 .7871-.196 1.3774-.787 1.9678-.59.3935-1.18.5903-1.968.5903-.787 0-1.574-.1968-1.967-.5903-.394-.3936-.787-.9839-.787-1.9678v-8.0679c0-1.1806-.197-2.1645-.591-2.5581-.393-.5903-1.18-.7871-2.164-.7871-1.181 0-1.968.3936-2.755 1.1807-.59.7871-.984 1.771-.984 2.9516v7.6743c0 .7872-.197 1.3775-.787 1.9678-.394.3936-1.181.5904-1.968.5904s-1.574-.1968-1.968-.5904c-.59-.3935-.787-.9839-.787-1.9678v-13.184c0-.7871.197-1.3775.787-1.771.591-.3936 1.181-.5904 1.968-.5904s1.378.1968 1.771.5904c.394.3935.787.9839.787 1.771v.5903c0-.1968.197-.3936.197-.3936.197-.1967.197-.1967.394-.3935.196-.1968.59-.5903.787-.7871 1.377-.9839 3.148-1.5742 4.722-1.5742 1.771-.1968 3.542 0 4.526 1.3774z"/><path d="m158.996 28.8977c.197.1968.197.1967.197.3935.196.5904.196 1.3775-.197 1.9678-.394.7871-.984.9839-1.574 1.3774-.787.3936-1.575.5904-2.362.7871-1.18.1968-2.164.3936-2.951.3936-1.968 0-3.542-.3936-5.117-1.1807-1.377-.7871-2.558-1.771-3.345-3.1484s-1.18-2.9517-1.18-4.9194c0-1.771.393-3.3452 1.18-4.7227.787-1.3774 1.771-2.5581 3.149-3.3452 1.377-.7871 2.755-1.1807 4.526-1.1807 1.574 0 2.951.3936 4.329.9839 1.18.7871 2.164 1.771 2.755 2.9517.59 1.3774.983 2.7549.983 4.5259 0 .5903-.196.9839-.393 1.1806-.197.1968-.59.3936-.984.3936h-10.036c.197 1.3774.591 2.3613 1.378 3.1484s1.771.9839 2.951.9839c.788 0 1.378 0 1.968-.1968.591-.1968 1.181-.3935 1.771-.5903.591-.1968 1.181-.3936 1.771-.3936.197 0 .591 0 .787.1968.197 0 .394.1968.394.3936zm-9.839-8.855c-.59.5903-.984 1.5742-1.181 2.9517h6.888c0-1.1807-.394-2.1646-.984-2.9517-.591-.5903-1.378-.9839-2.362-.9839s-1.771.3936-2.361.9839z"/><path d="m164.113 33.0301c-.591-.3936-.788-1.1807-.788-1.9678v-20.4649c0-.78706.197-1.57417.788-1.96773.59-.59033 1.18-.78711 1.967-.78711s1.575.19678 1.968.78711c.59.59033.787 1.18067.787 1.96773v20.2681c0 .5903-.197 1.3775-.59 1.9678-.787.5903-1.968 1.1806-3.149.7871-.393-.1968-.787-.3936-.983-.5903z"/><path d="m176.902 32.6365c-1.378-.7871-2.362-1.7709-3.149-3.1484-.787-1.3774-1.18-2.9516-1.18-4.9194 0-1.771.393-3.542 1.18-4.9194.787-1.3775 1.968-2.5581 3.345-3.3453 1.378-.7871 3.149-1.1806 4.92-1.1806.984 0 1.968.1968 2.951.3935.788.1968 1.771.5904 2.559 1.1807 1.18.7871 1.574 2.3613.787 3.542-.197.1968-.197.3935-.591.5903-.393.1968-.59 0-.984 0-.787-.1968-1.574-.3935-2.361-.7871-.59-.1968-1.181-.5903-1.968-.5903-1.377 0-2.361.5903-3.345 1.3774-.787.7871-.984 2.1646-.984 3.7388s.394 2.9516.984 3.7388c.787.7871 1.771 1.3774 3.149 1.3774.787 0 1.18-.1968 1.967-.3936.591-.1967.984-.3935 1.575-.5903.983-.3936 1.771-.3935 2.361.1968.393.3935.393.9839.393 1.5742 0 .9839-.393 1.5742-1.18 1.9678-.787.3935-1.574.7871-2.755 1.1806-1.181.3936-2.165.3936-3.149.3936-1.574-.1968-3.148-.5903-4.525-1.3775z"/><path d="m195.006 32.6364c-1.378-.7871-2.558-1.771-3.346-3.1484-.787-1.3774-1.18-2.9517-1.18-4.9194 0-1.9678.393-3.542 1.18-4.9195.788-1.3774 1.771-2.3613 3.346-3.1484 1.377-.7871 3.148-1.1807 4.919-1.1807s3.542.3936 4.919 1.1807c1.378.7871 2.559 1.771 3.346 3.1484.787 1.3775 1.18 2.9517 1.18 4.9195 0 1.9677-.393 3.542-1.18 4.9194s-1.771 2.3613-3.346 3.1484c-1.377.7871-3.148 1.1807-4.919 1.1807s-3.542-.3936-4.919-1.1807zm8.855-8.0678c0-1.771-.394-2.9517-.984-3.7388-.591-.7871-1.575-1.1807-2.952-1.1807-2.558 0-3.935 1.771-3.935 5.1162 0 3.3453 1.377 5.1163 3.935 5.1163 2.755-.1968 3.936-1.9678 3.936-5.313z"/><path d="m228.459 17.2878c.984 1.1807 1.574 3.1485 1.574 5.7066v8.2646c0 .7871-.197 1.3775-.787 1.9678-.591.3936-1.181.5903-1.968.5903s-1.574-.1967-1.968-.5903c-.393-.3935-.787-.9839-.787-1.9678v-8.0678c0-1.1807-.197-2.1646-.59-2.5581-.394-.5904-1.181-.7872-2.165-.7872-1.18 0-1.967.3936-2.755 1.1807-.59.7871-.983 1.771-.983 2.9517v7.6743c0 .7871-.197 1.3774-.788 1.9678-.393.3935-1.18.5903-1.967.5903s-1.575-.1968-1.968-.5903c-.59-.3936-.787-.9839-.787-1.9678v-13.1841c0-.7871.197-1.3774.787-1.771.59-.3935 1.181-.5903 1.968-.5903s1.377.1968 1.771.5903c.393.3936.787.9839.787 1.771v.5903c0-.3935.59-.9838.984-1.1806.393-.3936.787-.5904 1.18-.7871 2.362-1.3775 6.494-2.1646 8.462.1967z"/><path d="m237.117 33.4236c-.197 0-.591-.1968-.787-.1968-.788-.1967-1.575-.5903-2.165-.9839-.394-.1967-.59-.5903-.787-.7871-.197-.3935-.197-.7871-.197-1.1806 0-.5904.197-.9839.394-1.3775.393-.3935.787-.5903 1.18-.5903.394 0 .591 0 .984.1968.394.1968.591.1968.984.3935.59.3936 1.378.5904 1.968.7871.59.1968 1.377.1968 2.361.1968.787 0 1.574-.1968 1.968-.3935.394-.1968.787-.5904.787-.9839 0-.3936-.197-.5904-.393-.7871-.197-.1968-.591-.3936-1.181-.5904-.59-.1967-1.378-.3935-2.558-.5903-2.165-.3936-3.739-.9839-4.723-1.771s-1.377-1.9678-1.377-3.3452c0-2.1646 1.377-3.9356 3.345-4.7227 1.181-.5903 2.361-.7871 3.542-.7871 1.574-.1968 3.148 0 4.526.5904 1.377.3935 2.951 1.3774 2.951 2.9516 0 .5904-.196.9839-.393 1.3775-.394.3935-.787.5903-1.181.5903-1.18 0-2.164-.7871-3.345-1.1807-1.181-.3935-2.558-.3935-3.739 0-.393.1968-.787.3936-.787.7871-.197.3936 0 .7872.394.9839.393.3936.984.3936 1.574.5904.59.1967 1.181.1967 1.771.3935 1.574.3936 2.952.7871 3.739 1.1807.984.3935 1.574.9839 1.967 1.771.394.5903.591 1.5742.591 2.5581 0 1.771-.787 3.1484-2.165 4.1323-.984.7871-2.361 1.1807-3.739 1.3774-1.771.1968-3.738-.1967-5.509-.5903z"/></g></svg>