<svg fill="none" height="66" viewBox="0 0 254 66" width="254" xmlns="http://www.w3.org/2000/svg"><g fill="#4d4796"><path d="m67.3213 49.2097v-31.4662h12.1585c3.8458 0 6.8174.914 8.9148 2.7419 2.0974 1.8278 3.1464 4.4304 3.1467 7.8077 0 3.3777-1.0495 5.9765-3.1486 7.7965s-5.0726 2.7302-8.9205 2.7303h-6.2978v10.3885zm5.8539-15.4791h5.8524c2.5693 0 4.322-.4587 5.2576-1.3761.9357-.9176 1.4036-2.2709 1.4036-4.0601 0-1.7729-.4716-3.1108-1.4149-4.0137-.9433-.903-2.6925-1.3539-5.2477-1.3529h-5.8524z"/><path d="m92.7908 41.5165c.0014-.4907.0495-.9803.1435-1.4626.1575-.6573.4113-1.2896.7536-1.8774.4134-.7603.9787-1.4335 1.6629-1.9808.7019-.5682 1.7388-1.0559 3.1104-1.463 1.5788-.4337 3.2158-.6393 4.8568-.6103 1.429.0075 2.857.1153 4.27.3225 0-2.9947-1.716-4.492-5.148-4.492-2.7401 0-5.1216.3993-7.1445 1.1977v-4.6527c2.3996-.8237 4.9305-1.2293 7.4765-1.1978 3.469 0 6.122.8561 7.961 2.5683 1.837 1.7121 2.755 4.1883 2.755 7.4284v6.3576c.01 1.0492-.209 2.0887-.64 3.0509-.432.9624-1.068 1.8261-1.867 2.535-1.671 1.5581-4.241 2.3371-7.711 2.3371-3.5879 0-6.2319-.7831-7.9314-2.3494-.8171-.7238-1.4667-1.607-1.9058-2.5915-.4391-.9844-.6579-2.0477-.642-3.12zm5.854-.7142c0 2.5188 1.5262 3.778 4.5792 3.7779h.048c2.91 0 4.365-1.1902 4.365-3.5706v-2.9714c-1.155-.1672-2.32-.2672-3.488-.2996-3.654 0-5.4897 1.0212-5.5056 3.0634z"/><path d="m116.263 37.3819c-.037-1.8423.244-3.6776.832-5.4299.555-1.5449 1.213-2.7247 1.975-3.5391.766-.8175 1.68-1.49 2.701-1.9832.854-.4445 1.772-.763 2.724-.9451.769-.1224 1.549-.1842 2.329-.1845 3.411 0 5.921.7521 7.53 2.2564.776.6995 1.392 1.5488 1.808 2.4932s.622 1.9626.606 2.9892v16.7462c.004.719-.068 1.4367-.215 2.142-.188.7901-.492 1.55-.903 2.2564-.453.821-1.077 1.5426-1.831 2.1195-.968.6811-2.057 1.1846-3.212 1.4854-1.562.4309-3.181.6366-4.805.6103-2.376.0269-4.742-.2914-7.02-.9442v-5.089c2.051.6445 4.196.9634 6.352.9441 1.118.0231 2.236-.076 3.33-.2954.857-.197 1.44-.5075 1.748-.9314.257-.3247.454-.6897.583-1.079.091-.3983.132-.8059.122-1.2136v-1.2717c-1.214.2377-2.449.3693-3.688.3933-3.536 0-6.249-.9914-8.136-2.9742s-2.831-4.8347-2.83-8.5557zm5.852.1029c0 2.6325.437 4.4194 1.308 5.3606.873.9413 2.206 1.4117 3.998 1.4111 1.173.0011 2.343-.1068 3.496-.3223v-10.9263c0-1.7448-1.341-2.6172-4.021-2.6172h-.07c-1.555 0-2.728.5473-3.522 1.6416s-1.19 2.9119-1.189 5.4525z"/><path d="m140.067 37.6924c0-3.7777.869-6.7952 2.606-9.0526 1.736-2.2573 4.492-3.3861 8.267-3.3862 3.568 0 6.269 1.0979 8.101 3.2939 1.833 2.1958 2.747 4.8985 2.747 8.108 0 1.3211-.032 2.2962-.096 2.9256h-15.772c.158 2.0426.788 3.4092 1.891 4.1 1.103.6907 2.534 1.0363 4.295 1.0366 2.864-.0021 5.693-.6238 8.278-1.8196v4.5606c-2.696 1.4132-5.749 2.1195-9.159 2.1191-1.021.0049-2.04-.0799-3.045-.2532-1.037-.1992-2.037-.5568-2.958-1.0595-1.001-.5213-1.895-1.2162-2.636-2.0501-.735-.8293-1.339-1.9772-1.811-3.4437-.498-1.6489-.737-3.3612-.708-5.0789zm5.854-2.027h9.802c-.105-1.4685-.619-2.882-1.487-4.0903-.383-.5344-.899-.9671-1.5-1.2586-.6-.2915-1.266-.4322-1.938-.4096-1.459 0-2.597.4532-3.413 1.3598-.816.9065-1.303 2.3727-1.465 4.3987z"/><path d="m166.013 49.2097v-31.4662h11.705c1.393-.0107 2.783.1397 4.14.4481 1.253.2925 2.452.769 3.556 1.413 1.12.662 2.023 1.6179 2.605 2.7568.662 1.315.989 2.7648.953 4.2273 0 2.7758-1.285 4.8106-3.855 6.1042 3.775 1.3165 5.662 3.7348 5.662 7.2553.004.7981-.071 1.5947-.226 2.3786-.199.8579-.536 1.6802-.999 2.4364-.508.8766-1.196 1.6429-2.022 2.2516-1.049.7151-2.221 1.2428-3.462 1.5581-1.688.4505-3.435.6643-5.186.635zm5.854-18.6346h6.186c3.377 0 5.066-1.2666 5.066-3.7996 0-2.7799-1.831-4.1701-5.495-4.1705h-5.757zm0 13.6364h6.732c4.22 0 6.329-1.5199 6.329-4.5597 0-2.7186-2.181-4.0781-6.542-4.0785h-6.519z"/><path d="m194.384 38.5448v-12.8769h5.855v13.6033c0 1.8843.397 3.24 1.193 4.0673.795.8271 2.091 1.2407 3.887 1.2407 1.827 0 3.139-.4136 3.934-1.2407.795-.8273 1.192-2.183 1.193-4.0673v-13.6033h5.853v12.8761c0 3.4551-.968 6.1578-2.903 8.1082-1.935 1.9503-4.628 2.9255-8.077 2.9252-3.449 0-6.133-.975-8.053-2.9252-1.919-1.9502-2.879-4.6526-2.882-8.1074z"/><path d="m221.068 49.21v-32.5014h5.854v32.5014z"/><path d="m231.933 41.643v-25.0279h5.852v9.0526c1.317-.2386 2.656-.362 3.996-.3686 3.617 0 6.396 1.0193 8.339 3.0578 1.943 2.0384 2.913 4.9734 2.913 8.8049.034 1.8905-.254 3.7734-.853 5.5731-.569 1.6078-1.239 2.8271-2.014 3.6578-.787.8406-1.731 1.5296-2.783 2.0308-.883.457-1.834.7836-2.818.9692-.795.1228-1.599.1846-2.404.1846-3.474 0-6.046-.7765-7.72-2.3296-.802-.7109-1.439-1.5775-1.872-2.5433-.432-.9657-.649-2.009-.636-3.0614zm5.852.5332c0 1.6944 1.459 2.5416 4.377 2.5416 1.856 0 3.156-.6121 3.901-1.8364.745-1.2245 1.118-3.2309 1.118-6.0194 0-2.6493-.479-4.5015-1.438-5.5564-.96-1.055-2.352-1.5827-4.176-1.583-1.273-.0166-2.542.1151-3.782.3924z"/><path d="m32.9397 59.066c.5557-1.2035.8434-2.5107.8439-3.8334h-18.8192c.0003 1.3227.288 2.63.8439 3.8334z"/><path d="m16.4448 61.0549c.8464 1.3203 2.0172 2.4079 3.4035 3.1615s2.9431 1.1487 4.5256 1.1487c1.5824 0 3.1391-.3951 4.5255-1.1487 1.3862-.7536 2.5571-1.8412 3.4034-3.1615z"/><path d="m35.8099 23.6202h-22.87v13.1337h22.87zm-2.6977 10.8649h-17.6251v-8.6856h17.6247v8.6856z"/><path d="m34.5625 19.2375h-20.374c-.1637-.0002-.3258.0317-.4769.0939-.1511.0621-.2883.1532-.4036.268-.1166.1154-.2089.2525-.2717.4032-.0628.1508-.0947.3124-.0939.4755v1.1627h22.87v-1.1627c.0007-.1631-.0312-.3247-.0939-.4755-.0628-.1507-.1552-.2878-.2718-.4032-.1156-.1154-.2533-.2068-.4051-.2689-.1518-.0622-.3147-.0938-.4791-.093z"/><path d="m35.8099 38.7299h-22.87v9.7333h22.87zm-2.6977 7.7424h-17.7257v-1.9875h17.7253zm-17.7257-3.7777v-1.9902h17.7253v1.9891z"/><path d="m31.098 27.7898h-13.5965v4.7075h13.5965z"/><path d="m24.3756.365664c-4.3365-.004143-8.5952 1.135156-12.3364 3.300176-3.74126 2.16502-6.82911 5.27717-8.94462 9.01506-2.115519 3.7378-3.1819131 7.9656-3.08898639 12.2465.09292679 4.281 1.34178639 8.4598 3.61757639 12.1047h-.00256l.03204.0514c.16877.2659.34206.5295.51988.791l6.75387 10.3143v-27.7111c-.0004-.4234.0837-.8429.2476-1.2342.1637-.3914.404-.747.7069-1.0467.3031-.2997.6629-.5374 1.0591-.6998.396-.1623.8206-.2459 1.2495-.2462h20.374c.4289.0003.8535.0839 1.2495.2462.3962.1624.756.4001 1.059.6998s.5433.6553.707 1.0467c.1639.3913.248.8108.2476 1.2342v27.94l7.0262-10.9565c.0743-.1111.146-.2244.2203-.3394l.0561-.0903c2.2748-3.645 3.5228-7.8236 3.6152-12.1042.0925-4.2806-.9741-8.5079-3.0893-12.2453-2.1153-3.73748-5.2027-6.84954-8.9432-9.0148-3.7407-2.16527-7.9987-3.305204-12.3347-3.302081z"/></g></svg>