<svg fill="none" height="48" viewBox="0 0 174 48" width="174" xmlns="http://www.w3.org/2000/svg" xmlns:xlink="http://www.w3.org/1999/xlink"><linearGradient id="a" gradientUnits="userSpaceOnUse" x1="33.7628" x2="6.95884" y1="42.5175" y2="-2.62616"><stop offset="0" stop-color="#c5259a"/><stop offset=".169697" stop-color="#55369b"/><stop offset=".575758" stop-color="#4779c6"/><stop offset="1" stop-color="#70d0e4"/></linearGradient><linearGradient id="b" gradientUnits="userSpaceOnUse" x1="52.6713" x2="52.6713" y1="1.50566" y2="46.457"><stop offset="0" stop-color="#7a2393"/><stop offset=".472727" stop-color="#951e93"/><stop offset="1" stop-color="#ee197f"/></linearGradient><linearGradient id="c" gradientUnits="userSpaceOnUse" x1="26.6796" x2="26.6796" y1="1.50567" y2="46.9059"><stop offset="0" stop-color="#7a2393"/><stop offset=".472727" stop-color="#951e93"/><stop offset=".890909" stop-color="#ee197f"/><stop offset="1" stop-color="#ee1a98"/></linearGradient><linearGradient id="d" gradientUnits="userSpaceOnUse" x1="3.72875" x2="10.0384" y1="9.19768" y2="1.40143"><stop offset="0" stop-color="#423a9c"/><stop offset=".327273" stop-color="#4779c6"/><stop offset="1" stop-color="#70d0e4"/></linearGradient><linearGradient id="e" gradientUnits="userSpaceOnUse" x1="52.9823" x2="46.8863" y1="39.3358" y2="46.4894"><stop offset="0" stop-color="#3f2d92"/><stop offset=".193939" stop-color="#951e93"/><stop offset="1" stop-color="#ee197f"/></linearGradient><clipPath id="f"><path d="m0 .365112h174v47h-174z"/></clipPath><g clip-path="url(#f)"><path d="m160.162 29.4898 13.753-16.8h-6.751l-12.331 15.0597v-.0964l-5.588 6.8622-1.215 1.4931c-.035.0594-.069.1205-.105.18l-2.095 2.5583c-.388.3573-.799.6893-1.231.99-1.838 1.2752-4.035 2.0164-6.423 2.0171v.0874c-1.59-.0028-3.091-.3324-4.459-.9273-2.059-.8959-3.819-2.3978-5.059-4.2852-1.239-1.8905-1.961-4.1497-1.962-6.6067 0-1.6402.322-3.1879.902-4.5999.871-2.1189 2.331-3.9285 4.167-5.204 1.838-1.2745 4.035-2.0153 6.425-2.0164 2.525.0011 4.839.8291 6.737 2.2413l3.03-4.3005c-2.739-2.045-6.127-3.254-9.767-3.2533-2.294 0-4.491.4798-6.486 1.3478-2.993 1.3019-5.531 3.4712-7.328 6.2038-1.795 2.7309-2.846 6.042-2.845 9.5812 0 .0584.004.1178.004.1769h-.09c0 1.6385-.321 3.1872-.903 4.5992-.871 2.1174-2.33 3.9282-4.165 5.2029-1.838 1.2746-4.036 2.016-6.424 2.0174-1.595-.001-3.1-.3309-4.474-.9286-2.059-.8945-3.819-2.3969-5.06-4.2849-.5794-.8849-1.0455-1.8527-1.3773-2.8826-.2138-.1076-.4446-.2287-.689-.3627-1.1773-.6484-2.6527-1.5945-3.8627-2.8363-.5069-.5215-.9613-1.0368-1.3689-1.5353.0268.3324.0425.6693.0425 1.0109 0 1.6385-.3206 3.1872-.9021 4.5992-.8699 2.1174-2.3311 3.9282-4.1663 5.2029-1.8378 1.2746-4.0357 2.016-6.424 2.0174-1.5946-.001-3.0996-.3309-4.4735-.9286-2.0593-.8945-3.8189-2.3969-5.0585-4.2849-1.24-1.8897-1.9609-4.1503-1.9614-6.606 0-1.6393.3216-3.1882.902-4.6008.87-2.1176 2.331-3.9272 4.1665-5.2026 1.8379-1.2746 4.0347-2.0165 6.4249-2.0169 1.5934 0 3.0988.3311 4.4726.9279 2.0594.8953 3.8187 2.3972 5.0588 4.2848.028.043.0544.0864.0815.13l.008-.0031.0004.0038.0077.0195c.0006.0029.0033.008.0046.0122.0476.0753.0921.1539.1381.2297.1159.268.3468.7761.7116 1.4389.0367.0663.0759.1361.1154.206.0298.0736.0632.1454.0913.2194.3388.5679.7704 1.2206 1.3036 1.9204.0291.0385.0559.076.0856.1141.4661.6165 1.0141 1.2596 1.6416 1.89.0039.0047.0076.0083.0109.0119.005.0052.0101.0092.0146.0145.0996.1.2.1981.3042.2966.0407.0378.0807.0759.1217.1134.6574.6142 1.3948 1.208 2.2304 1.7416.9391.6 1.9972 1.1212 3.1692 1.4959 1.172.3757 2.457.6033 3.83.6249h.002c.118.002.234.0033.35.0033 2.213.0005 4.198-.3553 5.941-.9891 1.307-.4744 2.475-1.103 3.5-1.8311 1.539-1.0942 2.752-2.4057 3.697-3.7497.946-1.3466 1.627-2.7267 2.123-4.0004.38-.9749.574-1.9434.574-2.8708 0-.5337-.063-1.049-.183-1.5291-.207-.8407-.579-1.5588-.992-2.1239-.624-.8515-1.322-1.382-1.865-1.7263-.549-.3425-.957-.5009-1.079-.5462l-.009.03c-2.176-1.0698-4.616-1.6714-7.179-1.671-2.294-.0004-4.492.4786-6.486 1.3471-1.952.85-3.7094 2.0693-5.196 3.5727v-16.45243h-5.1641v14.33083c.3156.3107.6435.6476.9837 1.0155 1.3064 1.4125 2.1529 2.7774 2.8957 4.0328.7443 1.2589 1.3869 2.3997 2.2898 3.4409.1371.1595.2828.3164.4346.4722.8873-1.7852 2.2083-3.3131 3.8173-4.4308 1.836-1.2746 4.035-2.0165 6.425-2.0169 2.095.0004 4.04.5705 5.73 1.5714l.02-.0368c.111.0889.212.1917.268.28.042.0624.068.1164.088.1785.019.0621.036.1346.036.2615 0 .1702-.032.4524-.205.8978-.324.8342-.753 1.7143-1.302 2.55-.412.6267-.891 1.2294-1.444 1.7783-.833.8239-1.826 1.5314-3.072 2.0502-1.247.5177-2.756.8518-4.647.8523-.089 0-.177-.0005-.266-.0018h-.001c-.781-.0136-1.485-.1264-2.138-.3125-1.14-.3258-2.13-.8803-3-1.5617-.3037-.2378-.5908-.4931-.8624-.7571 0-.0012.0005-.0045.0022-.007-.1305-.1236-.2554-.2488-.3774-.3734-.7141-.7573-1.2976-1.5584-1.7257-2.2484-.3267-.5251-.663-.9627-.815-1.2739-.0757-.1564-.2268-.3989-.2268-.3989-.7726-1.3105-1.5758-2.6422-2.8592-4.0312-.0169-.0185-.0337-.0336-.0488-.0522v.001c-.6596-.6401-1.3667-1.2277-2.1209-1.7514-2.6554-1.8461-5.8741-2.928-9.3148-2.9266-2.2934-.0004-4.4905.4786-6.4857 1.3471-2.9928 1.3027-5.5312 3.4717-7.327 6.204-1.7955 2.7308-2.8473 6.0413-2.8463 9.5811-.001 2.3577.4656 4.6182 1.3099 6.6686 1.2662 3.0784 3.3752 5.6883 6.0328 7.5352 2.6555 1.8475 5.8744 2.9286 9.3163 2.928 2.2925.0002 4.4906-.4797 6.485-1.3482 2.9928-1.3023 5.5306-3.471 7.3271-6.2033.1124-.1725.2225-.346.3292-.523 1.2412 2.0453 2.8859 3.7995 4.8225 5.1465 2.656 1.8475 5.875 2.9286 9.318 2.928 2.291.0002 4.489-.4797 6.484-1.3482 2.991-1.3023 5.531-3.471 7.326-6.2033.125-.1893.246-.3818.362-.5776 1.233 1.9924 2.848 3.7043 4.75 5.0241 2.655 1.8469 5.873 2.928 9.315 2.9277 2.291.0003 4.491-.4792 6.484-1.3475 1.865-.8109 3.552-1.9587 4.994-3.3694v4.7829h5.165v-11.2221l1.939-2.3659 10.604 13.588h6.624zm-5.329-27.95573h-5.165v28.40553c0 .7706-.073 1.5202-.211 2.2469l5.376-6.602z" fill="#190b5a"/><path d="m29.5965 13.7198v13.9214c0 6.4853-3.8716 10.4024-9.7407 10.4024-5.8696 0-9.99008-3.9171-9.99008-10.4024v-26.13553h-9.86572v26.13553c0 11.8796 7.74194 19.2645 19.8558 19.2645 12.0508 0 19.6065-7.3849 19.6065-19.2645v-26.13553h-.1733c-5.2029 1.71798-9.0842 6.45932-9.6925 12.21413z" fill="url(#a)"/><path d="m47.9078 1.50566h-.1695v44.95114h9.8659v-32.7279c-.0931-4.99536-4.4906-10.50416-9.6964-12.22324z" fill="url(#b)"/><path d="m29.5963 13.7198v13.9214c0 .0084-.0006.0167-.0006.026.0024.1384.0097.2758.0097.4152 0 9.3757-6.8662 17.0979-15.7079 18.1501 1.8401.4409 3.8304.6732 5.9582.6732 12.0508 0 19.6064-7.3849 19.6064-19.2645v-26.13553h-.1733c-5.2028 1.71798-9.0842 6.45932-9.6925 12.21413z" fill="url(#c)"/><path d="m9.86572 13.7424v-12.23673h-9.86572v.00198c5.24526 1.72107 9.17579 6.46131 9.86572 12.23475z" fill="url(#d)"/><path d="m47.7383 33.1361v13.3207h9.7455c-5.4346-1.9722-9.3979-7.1467-9.7455-13.3207z" fill="url(#e)"/></g></svg>